<svg xmlns="http://www.w3.org/2000/svg" width="150" height="44" viewBox="0 0 150 44"><defs><linearGradient id="vxcoa" x1="-25.4" x2="-25.4" y1="107.47" y2="67.71" gradientUnits="userSpaceOnUse"><stop offset="0" stop-color="#1a1a1a" stop-opacity=".1"/><stop offset=".12" stop-color="#212121" stop-opacity=".15"/><stop offset=".31" stop-color="#353535" stop-opacity=".23"/><stop offset=".53" stop-color="#575757" stop-opacity=".32"/><stop offset=".78" stop-color="#858585" stop-opacity=".42"/><stop offset="1" stop-color="#b3b3b3" stop-opacity=".51"/></linearGradient></defs><g><g><g><path fill="#fff" d="M148.141 38.904a4.224 4.224 0 0 1-4.23 4.224H5.471a4.23 4.23 0 0 1-4.235-4.224V5.212A4.236 4.236 0 0 1 5.472.982H143.91a4.23 4.23 0 0 1 4.23 4.23l.001 33.692z"/></g><g><path fill="#a6a6a6" d="M143.911 44.111H5.471a5.218 5.218 0 0 1-5.217-5.206V5.213A5.222 5.222 0 0 1 5.472 0H143.91a5.224 5.224 0 0 1 5.218 5.213v33.69c.002 2.873-2.343 5.208-5.217 5.208z"/></g><g><path d="M148.141 38.904a4.224 4.224 0 0 1-4.23 4.224H5.471a4.23 4.23 0 0 1-4.235-4.224V5.212A4.236 4.236 0 0 1 5.472.982H143.91a4.23 4.23 0 0 1 4.23 4.23l.001 33.692z"/></g><g><path fill="#fff" d="M29.966 11.368c.964-1.205 1.624-2.846 1.44-4.51-1.395.062-3.14.965-4.146 2.144-.89 1.04-1.684 2.743-1.478 4.344 1.567.117 3.177-.79 4.184-1.978zm3.53 10.455c-.032-3.555 2.912-5.284 3.047-5.365-1.667-2.43-4.252-2.762-5.16-2.789-2.17-.228-4.275 1.299-5.38 1.299-1.128 0-2.83-1.277-4.666-1.239-2.361.036-4.57 1.403-5.782 3.525-2.5 4.328-.635 10.687 1.76 14.185 1.199 1.714 2.599 3.626 4.432 3.559 1.793-.073 2.462-1.142 4.626-1.142 2.144 0 2.773 1.142 4.642 1.098 1.924-.03 3.136-1.72 4.292-3.449 1.385-1.962 1.94-3.897 1.963-3.996-.044-.016-3.736-1.425-3.774-5.686z"/></g><g><path fill="url(#vxcoa)" d="M143.911 0H69.76l29.044 44.111h45.108a5.222 5.222 0 0 0 5.218-5.21V5.212A5.223 5.223 0 0 0 143.91 0z"/></g><g><g><path fill="#fff" d="M132.339 26.54c-.407-.655-1.034-.982-1.874-.982-.769 0-1.395.32-1.872.959-.392.509-.625 1.12-.696 1.829l4.899.002c.016-.698-.138-1.3-.457-1.808zm2.7 2.418c.006.358-.023.715-.086 1.067h-7.057c.026 1.046.368 1.846 1.024 2.398.594.492 1.363.739 2.308.739 1.045 0 1.998-.166 2.855-.5l.369 1.632c-1.002.437-2.185.654-3.55.654-1.642 0-2.93-.483-3.868-1.447-.936-.966-1.405-2.263-1.405-3.888 0-1.595.436-2.924 1.309-3.984.913-1.132 2.148-1.698 3.702-1.698 1.526 0 2.68.566 3.465 1.698.622.897.934 2.009.934 3.33zm-10.52-2.723a4.094 4.094 0 0 0-.742-.065c-.828 0-1.468.31-1.918.937-.39.552-.587 1.249-.587 2.09v5.554h-2.352V27.5a74.34 74.34 0 0 0-.069-3.333h2.05l.085 2.026h.065c.25-.696.64-1.258 1.177-1.678a2.845 2.845 0 0 1 1.7-.567c.217 0 .414.015.588.043l.002 2.244zm-10.089 3.19c0-.969-.21-1.8-.63-2.497-.493-.84-1.2-1.26-2.114-1.26-.942 0-1.665.42-2.157 1.26-.422.696-.631 1.543-.631 2.542 0 .97.21 1.805.63 2.498.51.841 1.219 1.261 2.138 1.261.9 0 1.604-.429 2.114-1.282.433-.712.65-1.55.65-2.521zm2.438-.053c0 1.627-.465 2.963-1.394 4.007-.972 1.076-2.265 1.612-3.877 1.612-1.556 0-2.793-.515-3.716-1.544-.922-1.032-1.383-2.331-1.383-3.899 0-1.64.476-2.984 1.426-4.028.953-1.046 2.235-1.569 3.847-1.569 1.553 0 2.801.516 3.746 1.547.902 1 1.351 2.29 1.351 3.874zm-11.675-3.44H102.6v5.139c0 1.307.456 1.959 1.372 1.959.42 0 .77-.036 1.045-.11l.065 1.786c-.463.173-1.073.26-1.83.26-.928 0-1.654-.283-2.178-.85-.522-.567-.785-1.517-.785-2.854v-5.335h-1.545v-1.765h1.545v-1.938l2.31-.697v2.635h2.594zm-7.798 4.702c0 1.25-.437 2.265-1.305 3.05-.956.856-2.29 1.285-4 1.285-1.58 0-2.847-.305-3.802-.915l.544-1.96a6.546 6.546 0 0 0 3.398.916c.887 0 1.577-.201 2.069-.6.493-.399.742-.932.742-1.599a2.05 2.05 0 0 0-.61-1.503c-.408-.406-1.081-.784-2.027-1.132-2.57-.959-3.857-2.36-3.857-4.205 0-1.204.455-2.19 1.362-2.962.907-.77 2.11-1.155 3.605-1.155 1.337 0 2.45.233 3.334.698l-.59 1.917c-.833-.45-1.772-.675-2.822-.675-.83 0-1.48.204-1.946.61-.392.363-.59.805-.59 1.33 0 .579.226 1.06.676 1.437.39.348 1.103.726 2.134 1.132 1.264.51 2.193 1.103 2.788 1.785.6.681.897 1.532.897 2.546zm-16.013-1.22c0-1.03-.233-1.879-.699-2.548-.508-.696-1.19-1.045-2.045-1.045-.58 0-1.108.194-1.582.577-.472.386-.78.89-.924 1.514a3.14 3.14 0 0 0-.11.716v1.766c0 .77.237 1.419.707 1.95.472.529 1.086.796 1.842.796.888 0 1.577-.343 2.07-1.024.494-.683.74-1.583.74-2.701zm2.397-.085c0 1.8-.488 3.223-1.467 4.268-.877.93-1.965 1.394-3.265 1.394-1.402 0-2.41-.5-3.023-1.501v5.554H73.67V27.645c0-1.13-.03-2.29-.087-3.479h2.069l.131 1.678h.044c.784-1.264 1.974-1.896 3.573-1.896 1.248 0 2.29.493 3.127 1.48.832.99 1.251 2.29 1.251 3.9zm-14.574.086c0-1.03-.232-1.88-.697-2.55-.51-.695-1.192-1.044-2.048-1.044-.58 0-1.108.194-1.58.577-.471.386-.78.89-.925 1.514a3.07 3.07 0 0 0-.11.716v1.766c0 .77.237 1.419.71 1.95.471.53 1.085.796 1.84.796.886 0 1.575-.343 2.068-1.024.495-.683.742-1.583.742-2.701zm2.396-.086c0 1.8-.488 3.223-1.467 4.268-.876.93-1.965 1.394-3.264 1.394-1.402 0-2.41-.5-3.023-1.501v5.554h-2.352V27.645c0-1.13-.03-2.29-.088-3.479h2.07l.13 1.678h.045c.784-1.264 1.975-1.896 3.572-1.896 1.25 0 2.292.493 3.126 1.48.833.99 1.251 2.29 1.251 3.9zm-16.427-.698l-1.24-3.834c-.132-.391-.38-1.313-.741-2.765h-.044c-.146.624-.379 1.546-.698 2.765l-1.22 3.833zm4.292 6.12h-2.505l-1.373-4.311h-4.77L49.51 34.75h-2.44l4.728-14.68h2.92z"/></g></g><g><g><path fill="#fff" d="M130.48 11.67c.076-.791.601-1.37 1.265-1.37.74 0 1.144.568 1.144 1.37zm3.47.825c.034-.173.047-.349.04-.524 0-1.488-.835-2.473-2.164-2.473-1.474 0-2.46 1.199-2.46 2.794 0 1.594.963 2.622 2.59 2.622.674 0 1.253-.107 1.746-.321l-.18-.803c-.417.16-.89.246-1.403.246-.965 0-1.617-.556-1.64-1.541zm-6.272 2.323v-3.094c0-1.36-.673-2.217-1.774-2.217-.673 0-1.2.28-1.565.847h-.023V7.228h-1.155v7.59h1.155v-3.136c0-.824.559-1.231 1.158-1.231.697 0 1.049.47 1.049 1.402v2.965zm-6.121-5.204h-1.272V8.32l-1.136.344v.953h-.759v.867h.76v2.623c0 1.317.544 1.82 1.456 1.82.373 0 .673-.043.897-.13l-.032-.877a2.278 2.278 0 0 1-.513.054c-.45 0-.674-.321-.674-.964v-2.526h1.273zm-7.78 2.087c0-1.359-.719-2.194-1.81-2.194-.707 0-1.34.355-1.65.91h-.031l-.054-.803h-1.018c.032.535.043 1.029.043 1.489v3.715h1.158v-3.094c0-.685.47-1.274 1.155-1.274.696 0 1.05.46 1.05 1.38v2.988h1.157zm-8.768-1.347c.816 0 1.35.792 1.349 1.85 0 1.04-.545 1.875-1.36 1.875-.812 0-1.358-.781-1.358-1.852 0-1.092.535-1.873 1.37-1.873zm-.043 4.582c1.555 0 2.593-1.135 2.592-2.761 0-1.585-1.006-2.666-2.506-2.666-1.584 0-2.59 1.145-2.59 2.75 0 1.542.985 2.677 2.504 2.677zm-8.496-2.312c0 .749-.514 1.38-1.24 1.38-.815 0-1.36-.717-1.36-1.766 0-1.07.525-1.83 1.382-1.83.736 0 1.218.62 1.218 1.349zm.171 2.194h1.03a19.75 19.75 0 0 1-.043-1.402V7.228H96.47v2.987h-.023c-.278-.473-.771-.708-1.467-.708-1.316 0-2.279 1.147-2.279 2.774 0 1.552.93 2.655 2.184 2.655.78 0 1.338-.322 1.67-.953h.032l.054.835zM89.9 13.03c0 .61-.548 1.059-1.136 1.059-.46 0-.793-.267-.793-.813 0-.738.644-1.05 1.929-1.05zm1.201 1.789c-.052-.31-.075-.717-.075-1.242V11.66c0-1.435-.686-2.152-2.045-2.152-.705 0-1.306.15-1.787.45l.235.76a2.435 2.435 0 0 1 1.36-.386c.717 0 1.08.343 1.08 1.028v.096c-1.928 0-3.041.664-3.041 1.948 0 .878.662 1.53 1.594 1.53.654 0 1.169-.234 1.522-.716h.03l.085.599zm-8.15-4.465c.815 0 1.35.792 1.348 1.85 0 1.04-.545 1.875-1.36 1.875-.81 0-1.358-.781-1.358-1.852 0-1.092.536-1.873 1.37-1.873zm-.042 4.582c1.552 0 2.592-1.135 2.59-2.761 0-1.585-1.006-2.666-2.505-2.666-1.585 0-2.591 1.145-2.591 2.75 0 1.542.986 2.677 2.506 2.677zm-4.216-7.707h-1.158v7.589h1.158zm-3.189 7.589l.001-3.115c0-1.36-.717-2.194-1.81-2.194-.707 0-1.338.353-1.649.909h-.032l-.054-.804h-1.017c.032.535.043 1.029.043 1.489v3.715h1.156v-3.094c0-.685.471-1.274 1.156-1.274.697 0 1.05.46 1.05 1.38v2.988h1.156zm-7.127-5.201l-.632 2.43c-.16.61-.278 1.178-.353 1.713h-.03a20.36 20.36 0 0 0-.419-1.713l-.707-2.43h-.943l-.739 2.483a17.14 17.14 0 0 0-.428 1.659h-.022a34.947 34.947 0 0 0-.353-1.67l-.59-2.473h-1.188l1.532 5.202h1.071l.717-2.26c.171-.544.333-1.112.417-1.68h.023c.11.567.25 1.128.418 1.68l.674 2.26h1.06l1.628-5.202zm-8.734 2.587c0 1.04-.546 1.875-1.36 1.875-.813 0-1.359-.781-1.359-1.852 0-1.092.535-1.873 1.37-1.873.814 0 1.349.792 1.349 1.85zm-1.392 2.732c1.553 0 2.591-1.135 2.591-2.761 0-1.585-1.007-2.666-2.505-2.666-1.586 0-2.592 1.145-2.592 2.75 0 1.542.985 2.677 2.506 2.677zm-7.717-6.478c1.713 0 2.623.933 2.623 2.613 0 1.884-1.006 2.89-2.773 2.89-.376 0-.643-.01-.782-.032V8.533a4.72 4.72 0 0 1 .932-.075zm3.845 2.58c0-2.163-1.243-3.49-3.94-3.49a12.81 12.81 0 0 0-1.992.15v7.098c.471.054 1.037.086 1.692.086 2.772 0 4.24-1.348 4.24-3.843z"/></g></g></g></g></svg>