<svg xmlns="http://www.w3.org/2000/svg" width="126" height="58" viewBox="0 0 126 58"><g><g><g><g><path d="M73.46 2.924a7.58 7.58 0 0 1-2.18.598 3.812 3.812 0 0 0 1.669-2.098 7.653 7.653 0 0 1-2.412.921 3.796 3.796 0 0 0-6.468 3.46 10.777 10.777 0 0 1-7.824-3.965 3.767 3.767 0 0 0-.513 1.908c0 1.317.67 2.479 1.688 3.159a3.796 3.796 0 0 1-1.72-.477v.048a3.8 3.8 0 0 0 3.045 3.722 3.845 3.845 0 0 1-1 .133c-.245 0-.482-.025-.715-.07a3.798 3.798 0 0 0 3.546 2.636 7.616 7.616 0 0 1-4.715 1.622c-.306 0-.608-.019-.905-.052a10.73 10.73 0 0 0 5.819 1.708c6.982 0 10.8-5.784 10.8-10.8l-.013-.492a7.58 7.58 0 0 0 1.898-1.96z"/></g></g></g><g><g><path d="M13.145.004L10.898 0C8.374 0 6.742 1.674 6.742 4.264V6.23H4.483a.353.353 0 0 0-.353.354v2.848c0 .195.158.353.353.353h2.26v7.188c0 .195.157.353.353.353h2.947a.353.353 0 0 0 .353-.353V9.785h2.642a.353.353 0 0 0 .353-.353l.001-2.848a.354.354 0 0 0-.353-.354h-2.643V4.563c0-.8.191-1.207 1.235-1.207h1.513a.353.353 0 0 0 .353-.354V.357a.353.353 0 0 0-.352-.353z"/></g></g><g><g><g><path d="M61.676 52.66v-7.319l6.1 3.66zm11.37-9.076c-.53-.941-1.104-1.115-2.274-1.18-1.168-.08-4.107-.113-6.653-.113-2.551 0-5.491.033-6.659.111-1.167.067-1.743.24-2.278 1.182-.545.941-.826 2.561-.826 5.413v.01c0 2.84.281 4.473.826 5.403.535.942 1.11 1.113 2.277 1.192 1.169.069 4.109.109 6.66.109 2.546 0 5.484-.04 6.654-.108 1.17-.079 1.745-.25 2.274-1.191.55-.931.829-2.564.829-5.404v-.006V49c0-2.854-.278-4.474-.83-5.415z"/></g></g></g><g><g><path d="M110.15 16.042h3.34V5.99h-3.34zm1.692-14.896c-1.143 0-1.89.75-1.89 1.736 0 .965.725 1.738 1.846 1.738h.022c1.166 0 1.89-.773 1.89-1.738-.021-.986-.724-1.736-1.868-1.736zm13.698 9.133c0-3.088-1.648-4.524-3.847-4.524-1.775 0-2.568.977-3.012 1.66v.033h-.022l.022-.032V5.99h-3.342c.045.943 0 10.05 0 10.05h3.342V10.43c0-.301.023-.6.11-.815.243-.6.792-1.222 1.715-1.222 1.21 0 1.693.922 1.693 2.273v5.377h3.341v-5.763z"/></g></g><g><g><path d="M16.247 52.287a3.453 3.453 0 0 1-3.452 3.452H5.72a3.453 3.453 0 0 1-3.453-3.452v-7.074a3.453 3.453 0 0 1 3.453-3.452h7.074a3.453 3.453 0 0 1 3.452 3.452zM12.794 40H5.721a5.22 5.22 0 0 0-5.213 5.213v7.074A5.22 5.22 0 0 0 5.72 57.5h7.073a5.22 5.22 0 0 0 5.214-5.213v-7.074A5.22 5.22 0 0 0 12.795 40z"/></g><g><path d="M9.258 51.516a2.766 2.766 0 1 1 0-5.532 2.766 2.766 0 0 1 0 5.532zm0-7.292a4.531 4.531 0 0 0-4.526 4.526 4.531 4.531 0 0 0 4.526 4.526 4.531 4.531 0 0 0 4.526-4.526 4.531 4.531 0 0 0-4.526-4.526z"/></g><g><path d="M12.708 44.258a1.085 1.085 0 1 1 2.17 0 1.085 1.085 0 0 1-2.17 0z"/></g></g></g></svg>