<svg xmlns="http://www.w3.org/2000/svg" width="150" height="44" viewBox="0 0 150 44"><defs><linearGradient id="17h0a" x1="24.3" x2="5.78" y1="36.71" y2="18.2" gradientUnits="userSpaceOnUse"><stop offset="0" stop-color="#00a0ff"/><stop offset=".01" stop-color="#00a1ff"/><stop offset=".26" stop-color="#00beff"/><stop offset=".51" stop-color="#00d2ff"/><stop offset=".76" stop-color="#00dfff"/><stop offset="1" stop-color="#00e3ff"/></linearGradient><linearGradient id="17h0b" x1="37.56" x2="10.89" y1="24.26" y2="24.26" gradientUnits="userSpaceOnUse"><stop offset="0" stop-color="#ffe000"/><stop offset=".41" stop-color="#ffbd00"/><stop offset=".77" stop-color="orange"/><stop offset="1" stop-color="#ff9c00"/></linearGradient><linearGradient id="17h0c" x1="27.63" x2="2.53" y1="21.72" y2="-3.39" gradientUnits="userSpaceOnUse"><stop offset="0" stop-color="#ff3a44"/><stop offset="1" stop-color="#c31162"/></linearGradient><linearGradient id="17h0d" x1="8.3" x2="19.51" y1="46.1" y2="34.9" gradientUnits="userSpaceOnUse"><stop offset="0" stop-color="#32a071"/><stop offset=".07" stop-color="#2da771"/><stop offset=".48" stop-color="#15cf74"/><stop offset=".8" stop-color="#06e775"/><stop offset="1" stop-color="#00f076"/></linearGradient></defs><g><g><g><path d="M143.615 44.111H5.768c-3.088 0-5.514-2.426-5.514-5.514V5.514C.254 2.426 2.68 0 5.768 0h137.847c3.088 0 5.514 2.426 5.514 5.514v33.083c0 3.088-2.426 5.514-5.514 5.514z"/></g><g><path fill="#a6a6a6" d="M149.129 5.514v33.083c0 3.088-2.426 5.514-5.514 5.514H5.768c-3.088 0-5.514-2.426-5.514-5.514V5.514C.254 2.536 2.68 0 5.768 0h137.847c3.088 0 5.514 2.536 5.514 5.514zM5.768.882c-2.537 0-4.632 2.095-4.632 4.632v33.083c0 2.537 2.095 4.632 4.632 4.632h137.847c2.536 0 4.632-2.095 4.632-4.632V5.514c0-2.537-2.096-4.632-4.632-4.632z"/></g><g><path fill="#fff" d="M83.624 14.336V7.72h.992l3.198 5.183V7.72h.883v6.617h-.883l-3.418-5.403v5.403zm-6.396-1.434c.44.442 1.103.772 1.764.772.662 0 1.324-.22 1.765-.771a2.66 2.66 0 0 0 .772-1.875c0-.772-.22-1.434-.772-1.875-.441-.441-1.103-.772-1.765-.772-.661 0-1.323.22-1.764.772a2.66 2.66 0 0 0-.772 1.875c0 .772.22 1.433.772 1.874zm4.19.552c-.661.662-1.433.992-2.426.992-.992 0-1.764-.33-2.426-.992-.662-.662-.992-1.434-.992-2.426 0-.993.33-1.765.992-2.426.662-.662 1.434-.993 2.426-.993.993 0 1.765.331 2.426.993.662.661.993 1.433.993 2.426 0 .992-.331 1.764-.993 2.426zm-11.358.882V8.491h-1.875V7.72h4.521v.772h-1.874v5.845zm-3.75 0V7.72h.883v6.617zm-5.072 0h-.883V8.491h-1.874V7.72h4.631v.772h-1.874zm-3.64-5.845h-2.977v2.096h2.757v.772H54.62v2.095h2.977v.882h-3.86V7.72h3.86zm-5.072 2.757c0 .883-.221 1.654-.772 2.206-.662.662-1.434.992-2.426.992-.993 0-1.765-.33-2.427-.992-.661-.662-.992-1.434-.992-2.426 0-.993.33-1.765.992-2.426.662-.662 1.434-.993 2.427-.993.44 0 .882.11 1.323.331.441.22.772.441.992.772l-.551.551c-.441-.551-.993-.772-1.764-.772-.662 0-1.324.22-1.765.772-.551.441-.772 1.103-.772 1.875s.22 1.434.772 1.875c.551.44 1.103.772 1.765.772.771 0 1.323-.22 1.874-.772.331-.331.552-.772.552-1.324h-2.426v-.882h3.198v.441z"/><path fill="none" stroke="#fff" stroke-miterlimit="20" stroke-width=".2" d="M83.624 14.336V7.72h.992l3.198 5.183V7.72h.883v6.617h-.883l-3.418-5.403v5.403zm-6.396-1.434c.44.442 1.103.772 1.764.772.662 0 1.324-.22 1.765-.771a2.66 2.66 0 0 0 .772-1.875c0-.772-.22-1.434-.772-1.875-.441-.441-1.103-.772-1.765-.772-.661 0-1.323.22-1.764.772a2.66 2.66 0 0 0-.772 1.875c0 .772.22 1.433.772 1.874zm4.19.552c-.661.662-1.433.992-2.426.992-.992 0-1.764-.33-2.426-.992-.662-.662-.992-1.434-.992-2.426 0-.993.33-1.765.992-2.426.662-.662 1.434-.993 2.426-.993.993 0 1.765.331 2.426.993.662.661.993 1.433.993 2.426 0 .992-.331 1.764-.993 2.426zm-11.358.882V8.491h-1.875V7.72h4.521v.772h-1.874v5.845zm-3.75 0V7.72h.883v6.617zm-5.072 0h-.883V8.491h-1.874V7.72h4.631v.772h-1.874zm-3.64-5.845h-2.977v2.096h2.757v.772H54.62v2.095h2.977v.882h-3.86V7.72h3.86zm-5.072 2.757c0 .883-.221 1.654-.772 2.206-.662.662-1.434.992-2.426.992-.993 0-1.765-.33-2.427-.992-.661-.662-.992-1.434-.992-2.426 0-.993.33-1.765.992-2.426.662-.662 1.434-.993 2.427-.993.44 0 .882.11 1.323.331.441.22.772.441.992.772l-.551.551c-.441-.551-.993-.772-1.764-.772-.662 0-1.324.22-1.765.772-.551.441-.772 1.103-.772 1.875s.22 1.434.772 1.875c.551.44 1.103.772 1.765.772.771 0 1.323-.22 1.874-.772.331-.331.552-.772.552-1.324h-2.426v-.882h3.198v.441z"/></g><g><path fill="#fff" d="M118.14 19.299h2.096v13.784h-2.095zm20.733 4.962l-5.624 13.013h-2.095l2.095-4.632-3.64-8.38h2.206l2.426 5.954h.11l2.317-5.955zm-11.359 5.073c-.55-.22-.992-.441-1.874-.441-.993 0-2.206.33-2.206 1.433 0 .883.993 1.213 1.654 1.213 1.103 0 2.206-.882 2.426-2.205zm-2.205-5.404c2.316 0 4.19 1.434 4.411 3.86v5.293h-1.985v-1.102h-.11c-.552.661-1.213 1.323-2.647 1.323-1.764 0-3.419-1.213-3.419-3.088 0-1.985 1.985-3.088 3.97-3.088.883 0 1.765.331 2.096.552v-.11c-.11-1.103-1.103-1.765-2.206-1.765-.772 0-1.433.22-1.875.993l-1.874-.772c.551-1.434 2.095-2.096 3.639-2.096zm-10.256-.44c0-.993-.882-2.317-2.426-2.317h-2.978v4.742h2.978c1.434 0 2.316-1.213 2.426-2.426zm-2.536-4.191c2.316 0 4.521 1.654 4.521 4.3 0 2.647-2.205 4.301-4.521 4.301h-2.868v5.183h-2.095V19.3zm-24.372 9.373c0-1.654-1.102-2.867-2.536-2.867s-2.647 1.213-2.647 2.867 1.213 2.867 2.647 2.867c1.434 0 2.536-1.213 2.536-2.867zm-.11-3.639v-.772h1.985v8.381c0 3.419-1.985 4.852-4.411 4.852-2.316 0-3.64-1.543-4.19-2.757l1.764-.771c.22.771 1.103 1.654 2.316 1.654 1.544 0 2.536-.993 2.536-2.757V32.2h-.11c-.441.551-1.324 1.103-2.426 1.103-2.426 0-4.522-1.985-4.522-4.632 0-2.646 2.206-4.742 4.522-4.742 1.102 0 1.985.552 2.536 1.103zm3.308-5.734h2.096v13.784h-2.096zm5.183 9.263l4.191-1.765c-.22-.55-.993-.992-1.764-.992-.993 0-2.427.992-2.427 2.757zm6.397-1.544l.22.551-6.286 2.647c.552.993 1.213 1.434 2.316 1.434 1.103 0 1.765-.552 2.316-1.324l1.544 1.103c-.441.772-1.765 2.095-3.86 2.095-2.647 0-4.632-2.095-4.632-4.741 0-2.868 1.985-4.742 4.412-4.742 2.426 0 3.528 1.874 3.97 2.977zm-43.23-1.544c.11.331.11.772.11 1.213 0 1.434-.44 3.309-1.764 4.632-1.323 1.434-2.867 2.095-5.072 2.095-3.97 0-7.389-3.308-7.389-7.278 0-3.97 3.419-7.279 7.389-7.279 2.205 0 3.75.883 4.962 1.985l-1.433 1.434c-.883-.772-2.096-1.434-3.64-1.434-2.867 0-5.183 2.316-5.183 5.294 0 2.977 2.206 5.293 5.183 5.293 1.875 0 2.978-.772 3.64-1.433.551-.552.992-1.434 1.102-2.537h-4.742v-1.985zm8.05 3.198c0-1.764-1.212-2.867-2.646-2.867-1.433 0-2.646 1.213-2.646 2.867s1.213 2.867 2.646 2.867c1.434 0 2.647-1.213 2.647-2.867zm2.096.11c0 2.757-2.095 4.742-4.742 4.742a4.707 4.707 0 0 1-4.742-4.742c0-2.756 2.096-4.741 4.742-4.741 2.647 0 4.742 1.874 4.742 4.741zm8.16-.11c0-1.764-1.212-2.867-2.646-2.867s-2.647 1.213-2.647 2.867 1.213 2.867 2.647 2.867c1.434 0 2.647-1.213 2.647-2.867zm2.096.11c0 2.757-2.095 4.742-4.742 4.742a4.707 4.707 0 0 1-4.742-4.742c0-2.756 2.095-4.741 4.742-4.741s4.742 1.874 4.742 4.741z"/></g><g><g><path fill="url(#17h0a)" d="M11.723 8.27c-.331.332-.441.883-.441 1.545v24.371c0 .662.22 1.213.551 1.544l.11.11 13.675-13.674v-.22z"/></g><g><path fill="url(#17h0b)" d="M30.029 26.797l-4.521-4.52v-.332l4.52-4.521.111.11 5.404 3.088c1.544.882 1.544 2.316 0 3.198z"/></g><g><path fill="url(#17h0c)" d="M30.14 26.687l-4.632-4.631L11.723 35.84c.551.552 1.323.552 2.316.11l16.1-9.263"/></g><g><path fill="url(#17h0d)" d="M30.14 17.424L14.038 8.27c-.993-.552-1.765-.441-2.316.11l13.785 13.675 4.631-4.632z"/></g><g opacity=".2"><path d="M30.029 26.577l-15.99 9.043c-.883.551-1.655.44-2.206 0l-.11.11.11.11c.551.441 1.323.552 2.206 0z"/></g><g opacity=".12"><path d="M36.646 22.056c0 .55-.331 1.102-1.103 1.543l-5.404 3.088-.11-.11 5.514-3.088c.661-.44 1.103-.882 1.103-1.433zM11.723 35.62c-.253-.253-.377-.634-.421-1.095.053.446.21.824.432 1.095zm-.421-1.095a2.845 2.845 0 0 1-.02-.339v-.11c0 .156.006.306.02.449zm.432 1.095h.1v.11a1.48 1.48 0 0 1-.1-.11z"/></g><g opacity=".25"><path fill="#fff" d="M14.039 8.381l21.504 12.24c.661.442 1.103.883 1.103 1.435 0-.552-.331-1.103-1.103-1.544L14.039 8.27c-1.544-.882-2.757-.22-2.757 1.544v.11c0-1.654 1.213-2.426 2.757-1.544z"/></g></g></g></g></svg>