<svg xmlns="http://www.w3.org/2000/svg" width="135" height="135" viewBox="0 0 135 135"><defs><mask id="kwh4b" width="2" height="2" x="-1" y="-1"><path fill="#fff" d="M4 1h127v127H4z"/><path d="M4 64.5C4 29.43 32.43 1 67.5 1S131 29.43 131 64.5 102.57 128 67.5 128 4 99.57 4 64.5z"/></mask><filter id="kwh4a" width="159" height="162" x="-12" y="-15" filterUnits="userSpaceOnUse"><feOffset dy="3" in="SourceGraphic" result="FeOffset1023Out"/><feGaussianBlur in="FeOffset1023Out" result="FeGaussianBlur1024Out" stdDeviation="2.4 2.4"/></filter></defs><g><g><g filter="url(#kwh4a)"><path fill="none" d="M4 64.5C4 29.43 32.43 1 67.5 1S131 29.43 131 64.5 102.57 128 67.5 128 4 99.57 4 64.5z" mask="url(&quot;#kwh4b&quot;)"/><path fill-opacity=".06" d="M4 64.5C4 29.43 32.43 1 67.5 1S131 29.43 131 64.5 102.57 128 67.5 128 4 99.57 4 64.5z"/></g><path fill="#fff" d="M4 64.5C4 29.43 32.43 1 67.5 1S131 29.43 131 64.5 102.57 128 67.5 128 4 99.57 4 64.5z"/></g><g><g><g><g><path fill="#5fa01b" d="M87.313 83.732c0 1.671-1.36 3.03-3.03 3.03a3.034 3.034 0 0 1-3.032-3.03V65.357h6.062zm-36.56 3.03a3.034 3.034 0 0 1-3.03-3.03V43.397l1.734 1.735c.37.37.97.37 1.34 0l2.683-2.683 2.683 2.683c.37.37.97.37 1.34 0l2.683-2.683 2.683 2.683c.37.37.97.37 1.34 0l2.683-2.683 2.683 2.683c.37.37.97.37 1.34 0l2.683-2.683 2.683 2.683c.37.37.97.37 1.34 0l1.735-1.736V64.41l.002.025v19.297a4.9 4.9 0 0 0 1.047 3.03H50.754zm37.507-23.3h-7.01V41.11a.947.947 0 0 0-1.617-.67l-2.683 2.683-2.683-2.683a.947.947 0 0 0-1.34 0l-2.683 2.683-2.683-2.683a.947.947 0 0 0-1.34 0l-2.682 2.683-2.684-2.683a.947.947 0 0 0-1.34 0l-2.682 2.683-2.683-2.683a.947.947 0 0 0-1.34 0l-2.683 2.683-2.683-2.683a.946.946 0 0 0-1.615.694v42.598a4.93 4.93 0 0 0 4.925 4.925h33.528a4.93 4.93 0 0 0 4.925-4.925V64.41a.947.947 0 0 0-.947-.947z"/><path fill="none" stroke="#5fa01b" stroke-miterlimit="20" stroke-width=".4" d="M87.313 83.732c0 1.671-1.36 3.03-3.03 3.03a3.034 3.034 0 0 1-3.032-3.03V65.357h6.062zm-36.56 3.03a3.034 3.034 0 0 1-3.03-3.03V43.397l1.734 1.735c.37.37.97.37 1.34 0l2.683-2.683 2.683 2.683c.37.37.97.37 1.34 0l2.683-2.683 2.683 2.683c.37.37.97.37 1.34 0l2.683-2.683 2.683 2.683c.37.37.97.37 1.34 0l2.683-2.683 2.683 2.683c.37.37.97.37 1.34 0l1.735-1.736V64.41l.002.025v19.297a4.9 4.9 0 0 0 1.047 3.03H50.754zm37.507-23.3h-7.01V41.11a.947.947 0 0 0-1.617-.67l-2.683 2.683-2.683-2.683a.947.947 0 0 0-1.34 0l-2.683 2.683-2.683-2.683a.947.947 0 0 0-1.34 0l-2.682 2.683-2.684-2.683a.947.947 0 0 0-1.34 0l-2.682 2.683-2.683-2.683a.947.947 0 0 0-1.34 0l-2.683 2.683-2.683-2.683a.946.946 0 0 0-1.615.694v42.598a4.93 4.93 0 0 0 4.925 4.925h33.528s0 0 0 0a4.93 4.93 0 0 0 4.925-4.925V64.41a.947.947 0 0 0-.947-.947z"/></g></g></g><g><g><g><path fill="#5fa01b" d="M63.54 55.209c-.94 0-1.705-.655-1.705-1.46 0-.805.764-1.46 1.704-1.46s1.705.655 1.705 1.46a.947.947 0 1 0 1.894 0c0-1.544-1.125-2.847-2.652-3.235v-.642a.947.947 0 1 0-1.894 0v.642c-1.526.388-2.652 1.691-2.652 3.235 0 1.85 1.615 3.354 3.6 3.354.94 0 1.704.655 1.704 1.46 0 .804-.765 1.46-1.705 1.46-.94 0-1.704-.656-1.704-1.46a.947.947 0 1 0-1.895 0c0 1.544 1.126 2.846 2.652 3.235v.773a.947.947 0 1 0 1.895 0v-.773c1.526-.389 2.651-1.691 2.651-3.235 0-1.85-1.614-3.354-3.599-3.354z"/><path fill="none" stroke="#5fa01b" stroke-miterlimit="20" stroke-width=".4" d="M63.54 55.209c-.94 0-1.705-.655-1.705-1.46 0-.805.764-1.46 1.704-1.46s1.705.655 1.705 1.46a.947.947 0 1 0 1.894 0c0-1.544-1.125-2.847-2.652-3.235v-.642a.947.947 0 1 0-1.894 0v.642c-1.526.388-2.652 1.691-2.652 3.235 0 1.85 1.615 3.354 3.6 3.354.94 0 1.704.655 1.704 1.46 0 .804-.765 1.46-1.705 1.46-.94 0-1.704-.656-1.704-1.46a.947.947 0 1 0-1.895 0c0 1.544 1.126 2.846 2.652 3.235v.773a.947.947 0 1 0 1.895 0v-.773c1.526-.389 2.651-1.691 2.651-3.235 0-1.85-1.614-3.354-3.599-3.354z"/></g></g></g><g><g><g><path fill="#5fa01b" d="M73.055 55.209H71.21a.947.947 0 1 0 0 1.894h1.846a.947.947 0 1 0 0-1.894z"/><path fill="none" stroke="#5fa01b" stroke-miterlimit="20" stroke-width=".4" d="M73.055 55.209H71.21a.947.947 0 1 0 0 1.894h1.846a.947.947 0 1 0 0-1.894z"/></g></g></g><g><g><g><path fill="#5fa01b" d="M55.87 55.209h-1.846a.947.947 0 1 0 0 1.894h1.846a.947.947 0 1 0 0-1.894z"/><path fill="none" stroke="#5fa01b" stroke-miterlimit="20" stroke-width=".4" d="M55.87 55.209h-1.846a.947.947 0 1 0 0 1.894h1.846a.947.947 0 1 0 0-1.894z"/></g></g></g><g><g><g><path fill="#5fa01b" d="M73.534 65.736H58.53a.947.947 0 1 0 0 1.895h15.005a.947.947 0 1 0 0-1.895z"/><path fill="none" stroke="#5fa01b" stroke-miterlimit="20" stroke-width=".4" d="M73.534 65.736H58.53a.947.947 0 1 0 0 1.895h15.005a.947.947 0 1 0 0-1.895z"/></g></g></g><g><g><g><path fill="#5fa01b" d="M54.214 66.014a.954.954 0 0 0-.67-.278.954.954 0 0 0-.67.278.954.954 0 0 0-.277.67c0 .249.101.493.278.67.176.175.42.277.67.277.248 0 .493-.102.669-.278a.954.954 0 0 0 .277-.67.954.954 0 0 0-.277-.669z"/><path fill="none" stroke="#5fa01b" stroke-miterlimit="20" stroke-width=".4" d="M54.214 66.014a.954.954 0 0 0-.67-.278.954.954 0 0 0-.67.278.954.954 0 0 0-.277.67c0 .249.101.493.278.67.176.175.42.277.67.277.248 0 .493-.102.669-.278a.954.954 0 0 0 .277-.67.954.954 0 0 0-.277-.669z"/></g></g></g><g><g><g><path fill="#5fa01b" d="M73.534 71.988H58.53a.947.947 0 0 0 0 1.894h15.005a.947.947 0 1 0 0-1.894z"/><path fill="none" stroke="#5fa01b" stroke-miterlimit="20" stroke-width=".4" d="M73.534 71.988H58.53a.947.947 0 0 0 0 1.894h15.005a.947.947 0 1 0 0-1.894z"/></g></g></g><g><g><g><path fill="#5fa01b" d="M54.214 72.265a.954.954 0 0 0-.67-.277.954.954 0 0 0-.67.277.954.954 0 0 0-.277.67c0 .249.101.493.278.67.176.176.42.277.67.277.248 0 .493-.101.669-.278a.954.954 0 0 0 .277-.67.954.954 0 0 0-.277-.669z"/><path fill="none" stroke="#5fa01b" stroke-miterlimit="20" stroke-width=".4" d="M54.214 72.265a.954.954 0 0 0-.67-.277.954.954 0 0 0-.67.277.954.954 0 0 0-.277.67c0 .249.101.493.278.67.176.176.42.277.67.277.248 0 .493-.101.669-.278a.954.954 0 0 0 .277-.67.954.954 0 0 0-.277-.669z"/></g></g></g><g><g><g><path fill="#5fa01b" d="M73.534 78.239H58.53a.947.947 0 1 0 0 1.894h15.005a.947.947 0 1 0 0-1.894z"/><path fill="none" stroke="#5fa01b" stroke-miterlimit="20" stroke-width=".4" d="M73.534 78.239H58.53a.947.947 0 1 0 0 1.894h15.005a.947.947 0 1 0 0-1.894z"/></g></g></g><g><g><g><path fill="#5fa01b" d="M54.214 78.516a.954.954 0 0 0-.67-.277.954.954 0 0 0-.67.277.954.954 0 0 0-.277.67c0 .249.101.493.278.67.176.176.42.277.67.277.248 0 .493-.101.669-.277a.954.954 0 0 0 .277-.67.954.954 0 0 0-.277-.67z"/><path fill="none" stroke="#5fa01b" stroke-miterlimit="20" stroke-width=".4" d="M54.214 78.516a.954.954 0 0 0-.67-.277.954.954 0 0 0-.67.277.954.954 0 0 0-.277.67c0 .249.101.493.278.67.176.176.42.277.67.277.248 0 .493-.101.669-.277a.954.954 0 0 0 .277-.67.954.954 0 0 0-.277-.67z"/></g></g></g></g></g></svg>