<svg xmlns="http://www.w3.org/2000/svg" width="135" height="135" viewBox="0 0 135 135"><defs><mask id="dwmhb" width="2" height="2" x="-1" y="-1"><path fill="#fff" d="M4 1h127v127H4z"/><path d="M4 64.5C4 29.43 32.43 1 67.5 1S131 29.43 131 64.5 102.57 128 67.5 128 4 99.57 4 64.5z"/></mask><filter id="dwmha" width="159" height="162" x="-12" y="-15" filterUnits="userSpaceOnUse"><feOffset dy="3" in="SourceGraphic" result="FeOffset1145Out"/><feGaussianBlur in="FeOffset1145Out" result="FeGaussianBlur1146Out" stdDeviation="2.4 2.4"/></filter></defs><g><g><g filter="url(#dwmha)"><path fill="none" d="M4 64.5C4 29.43 32.43 1 67.5 1S131 29.43 131 64.5 102.57 128 67.5 128 4 99.57 4 64.5z" mask="url(&quot;#dwmhb&quot;)"/><path fill-opacity=".06" d="M4 64.5C4 29.43 32.43 1 67.5 1S131 29.43 131 64.5 102.57 128 67.5 128 4 99.57 4 64.5z"/></g><path fill="#fff" d="M4 64.5C4 29.43 32.43 1 67.5 1S131 29.43 131 64.5 102.57 128 67.5 128 4 99.57 4 64.5z"/></g><g><g><g><g><path fill="#5fa01b" d="M56.45 77.621a1.119 1.119 0 1 0 0 2.238 1.119 1.119 0 0 0 0-2.238z"/></g></g></g><g><g><g><path fill="#5fa01b" d="M73.987 70.348l-4.477-5.595 17.956-5.986 5.589 5.589zm12.662 14.52l-17.896 5.966V67.387l3.965 4.956c.289.36.769.507 1.21.369l12.721-3.998zM67.634 63.02l-16.596-5.532 9.037-3.013c2.115 2.6 5.3 4.131 8.678 4.131 3.125 0 6.063-1.286 8.176-3.552l7.302 2.434zm-1.118 27.752l-15.66-5.873V69.217c12.321 4.085 11.72 3.96 12.062 3.96.385 0 .753-.199.96-.543l2.638-4.397zM44.462 64.727l3.536-5.895 17.96 5.987-3.537 5.895-17.96-5.987zm-2.245-14.105l15.47-4.823a11.118 11.118 0 0 0 1.12 6.741l-11.004 3.668zM60.29 44.51a8.951 8.951 0 0 1 8.464-6.037 8.93 8.93 0 0 1 8.948 8.949 8.84 8.84 0 0 1-1.994 5.632 8.916 8.916 0 0 1-6.954 3.316 8.956 8.956 0 0 1-7.353-3.848 8.883 8.883 0 0 1-1.595-5.1c0-1 .162-1.979.484-2.912zm19.65 2.912c0-.284-.013-.568-.034-.85l13.142 4.056-5.581 5.58-9.12-3.039a11.217 11.217 0 0 0 1.592-5.747zm9.411 10.066l6.591-6.591a1.119 1.119 0 0 0-.46-1.86l-16.052-4.954a11.162 11.162 0 0 0-10.676-7.847c-4.582 0-8.68 2.793-10.376 7.005l-18.592 5.797a1.119 1.119 0 0 0-.457 1.86l6.764 6.764-4.266 7.111a1.119 1.119 0 0 0 .605 1.637l6.188 2.062v17.203c0 .467.29.884.726 1.048 3.784 1.419 17.842 6.691 17.918 6.718.222.078.471.089.715.01l.01-.003 20.134-6.711c.456-.153.765-.58.765-1.062V68.011l6.599-2.074a1.118 1.118 0 0 0 .455-1.858z"/></g></g></g><g><g><g><path fill="#5fa01b" d="M63.553 80.104l-2.488-.933a1.119 1.119 0 0 0-.785 2.095l2.488.933a1.119 1.119 0 0 0 .785-2.095z"/></g></g></g><g><g><g><path fill="#5fa01b" d="M63.553 84.882l-6.711-2.516a1.119 1.119 0 0 0-.786 2.094l6.711 2.517a1.117 1.117 0 0 0 1.44-.655 1.118 1.118 0 0 0-.654-1.44z"/></g></g></g><g><g><g><path fill="#5fa01b" d="M75.137 43.274a1.119 1.119 0 0 0-1.582 0l-5.92 5.92-1.447-1.446a1.119 1.119 0 0 0-1.582 1.582l2.237 2.237a1.119 1.119 0 0 0 1.582 0l6.712-6.71a1.119 1.119 0 0 0 0-1.583z"/></g></g></g></g></g></svg>