<svg xmlns="http://www.w3.org/2000/svg" width="135" height="135" viewBox="0 0 135 135"><defs><mask id="9nqpb" width="2" height="2" x="-1" y="-1"><path fill="#fff" d="M4 1h127v127H4z"/><path d="M4 64.5C4 29.43 32.43 1 67.5 1S131 29.43 131 64.5 102.57 128 67.5 128 4 99.57 4 64.5z"/></mask><filter id="9nqpa" width="159" height="162" x="-12" y="-15" filterUnits="userSpaceOnUse"><feOffset dy="3" in="SourceGraphic" result="FeOffset1212Out"/><feGaussianBlur in="FeOffset1212Out" result="FeGaussianBlur1213Out" stdDeviation="2.4 2.4"/></filter></defs><g><g><g filter="url(#9nqpa)"><path fill="none" d="M4 64.5C4 29.43 32.43 1 67.5 1S131 29.43 131 64.5 102.57 128 67.5 128 4 99.57 4 64.5z" mask="url(&quot;#9nqpb&quot;)"/><path fill-opacity=".06" d="M4 64.5C4 29.43 32.43 1 67.5 1S131 29.43 131 64.5 102.57 128 67.5 128 4 99.57 4 64.5z"/></g><path fill="#fff" d="M4 64.5C4 29.43 32.43 1 67.5 1S131 29.43 131 64.5 102.57 128 67.5 128 4 99.57 4 64.5z"/></g><g><g><g><g><path fill="#5fa01b" d="M77 61c0-1.105.672-2 1.5-2s1.5.895 1.5 2-.672 2-1.5 2-1.5-.895-1.5-2z"/></g><g><path fill="#5fa01b" d="M82.122 46.974H79.99v-1.64a1.64 1.64 0 1 0-3.28 0v1.64h-7.463v-1.64a1.64 1.64 0 1 0-3.28 0v1.64h-7.382v-1.64a1.64 1.64 0 1 0-3.28 0v1.64h-2.05a6.568 6.568 0 0 0-6.561 6.561v25.587a6.568 6.568 0 0 0 6.56 6.561h12.548a1.64 1.64 0 1 0 0-3.28H53.255a3.284 3.284 0 0 1-3.28-3.28V53.534a3.284 3.284 0 0 1 3.28-3.28h2.05v1.64a1.64 1.64 0 1 0 3.28 0v-1.64h7.381v1.64a1.64 1.64 0 1 0 3.28 0v-1.64h7.464v1.64a1.64 1.64 0 1 0 3.28 0v-1.64h2.132a3.284 3.284 0 0 1 3.28 3.28v9.35a1.64 1.64 0 1 0 3.281 0v-9.35a6.568 6.568 0 0 0-6.56-6.56z"/></g><g><path fill="#5fa01b" d="M78.76 82.403a6.65 6.65 0 0 1-6.643-6.643 6.65 6.65 0 0 1 6.643-6.643 6.65 6.65 0 0 1 6.643 6.643 6.65 6.65 0 0 1-6.643 6.643zm0-16.566c-5.472 0-9.923 4.451-9.923 9.923s4.451 9.923 9.923 9.923 9.923-4.451 9.923-9.923-4.451-9.923-9.923-9.923z"/></g><g><path fill="#5fa01b" d="M81.138 74.12H80.4v-1.723a1.64 1.64 0 1 0-3.28 0v3.363c0 .906.734 1.64 1.64 1.64h2.378a1.64 1.64 0 1 0 0-3.28z"/></g><g><path fill="#5fa01b" d="M69 61a2 2 0 1 1 4 0 2 2 0 0 1-4 0z"/></g><g><path fill="#5fa01b" d="M62 67.5c0-.828.895-1.5 2-1.5s2 .672 2 1.5-.895 1.5-2 1.5-2-.672-2-1.5z"/></g><g><path fill="#5fa01b" d="M55 61c0-1.105.672-2 1.5-2s1.5.895 1.5 2-.672 2-1.5 2-1.5-.895-1.5-2z"/></g><g><path fill="#5fa01b" d="M55 67.5a1.5 1.5 0 1 1 3 0 1.5 1.5 0 0 1-3 0z"/></g><g><path fill="#5fa01b" d="M55 75.5a1.5 1.5 0 1 1 3 0 1.5 1.5 0 0 1-3 0z"/></g><g><path fill="#5fa01b" d="M62 75.5c0-.828.895-1.5 2-1.5s2 .672 2 1.5-.895 1.5-2 1.5-2-.672-2-1.5z"/></g><g><path fill="#5fa01b" d="M62 61a2 2 0 1 1 4 0 2 2 0 0 1-4 0z"/></g></g></g></g></g></svg>