<svg xmlns="http://www.w3.org/2000/svg" width="386" height="271" viewBox="0 0 386 271"><defs><linearGradient id="eeg8a" x1="874.24" x2="874.24" y1="223.35" y2="122.32" gradientUnits="userSpaceOnUse"><stop offset="0" stop-color="gray" stop-opacity=".25"/><stop offset=".54" stop-color="gray" stop-opacity=".12"/><stop offset="1" stop-color="gray" stop-opacity=".1"/></linearGradient></defs><g><g><g opacity=".1"><path fill="#5fa01b" d="M237.293 32.83c-16.532 11.575-37.977 10.828-56.769 4.805-18.791-6.024-36.053-16.748-54.363-24.369A176.662 176.662 0 0 0 78.397.816c-23.335-2.67-49.394.583-65.652 19.303-18.105 20.836-16.715 58.427 2.86 77.57 9.963 9.73 23.006 14.505 34.38 22.101 11.375 7.597 21.913 20.204 20.945 34.86-.898 13.584-11.325 23.993-22.117 30.531-8.34 5.051-18.61 10.567-19.614 21.03-.972 10.123 7.664 18.055 15.911 22.567 26.903 14.72 60.054 14.577 86.864-.358 9.558-5.344 18.338-12.436 28.365-16.576 26.327-10.91 55.338.076 83.217 4.09a166.357 166.357 0 0 0 70.778-5.151c13.805-4.079 27.664-10.313 37.362-21.927 6.995-8.375 11.353-18.97 15.442-29.44a1164.77 1164.77 0 0 0 12.58-33.72c2.412-6.792 4.79-13.72 5.415-20.99 1.13-13.173-3.632-26.195-10.116-37.313-15.396-26.416-41.327-44.976-69.409-49.69-28.082-4.716-57.791 4.493-79.571 24.643"/></g><g opacity=".1"><g opacity=".1"><path d="M193.26 36.963l-1.361 78.999s49.301 0 91.25 13.62l.815-79.808s-67.279-16.082-90.703-12.811z"/></g></g><g><path fill="#f7f7fd" d="M192.188 35.533l-1.361 79s49.3 0 91.25 13.619l.814-79.808s-67.278-16.082-90.703-12.811z"/></g><g opacity=".1"><g opacity=".1"><path d="M168.51 39.225l1.362 79s-49.301 0-91.246 13.62l-.819-79.808s67.279-16.065 90.703-12.812z"/></g></g><g><path fill="#f7f7fd" d="M169.583 37.438l1.361 79s-49.3 0-91.246 13.619l-.818-79.808s67.278-16.064 90.703-12.811z"/></g><g opacity=".2"><g opacity=".2"><path fill="#5fa01b" d="M147.438 46.653l.732 42.363s-26.452 0-48.936 7.303l-.44-42.799s36.082-8.611 48.644-6.867z"/></g></g><g opacity=".1"><g opacity=".1"><path d="M313.022 66.02v78.174s16.086-1.908 49.848 39.768l2.996-78.173s-35.139-37.863-52.844-39.768z"/></g></g><g><path fill="#f7f7fd" d="M312.307 64.948v78.174s16.086-1.909 49.848 39.768l2.996-78.174s-35.139-37.862-52.844-39.768z"/></g><g opacity=".1"><g opacity=".1"><path d="M53.02 66.378v78.174s-16.07-1.909-49.826 39.768L.181 106.146s35.135-37.862 52.84-39.768z"/></g></g><g><path fill="#f7f7fd" d="M54.093 64.948v78.174s-16.071-1.909-49.827 39.768l-3.013-78.174s35.135-37.862 52.84-39.768z"/></g><g opacity=".2"><g opacity=".2"><path fill="#5fa01b" d="M205.361 51.965l33.398 5.974v4.865L205.36 56.39z"/></g></g><g><path fill="#fff" d="M141.018 98.972l-33.395 5.973v4.865l33.395-6.413z"/></g><g><path fill="#fff" d="M205.804 61.034l61.04 12.608v4.865l-61.04-13.047z"/></g><g><path fill="#fff" d="M205.804 70.103l61.04 12.604v4.869l-61.04-13.051z"/></g><g opacity=".2"><g opacity=".2"><path fill="#5fa01b" d="M326.541 90.192v4.294l13.094 10.638.615-3.682z"/></g></g><g><path fill="#fff" d="M326.541 131.658v4.293l13.094 10.638.615-3.681z"/></g><g><path fill="#fff" d="M326.749 97.556l-.208 4.297 24.755 23.317-.408-4.908z"/></g><g><path fill="#fff" d="M326.541 105.535v4.09l24.755 23.731v-5.319z"/></g><g opacity=".2"><g opacity=".2"><path fill="#5fa01b" d="M39.652 91.122l.203 4.297-24.75 23.317.407-4.908z"/></g></g><g opacity=".2"><g opacity=".2"><path fill="#5fa01b" d="M39.855 99.1v4.09l-24.75 23.732v-5.32z"/></g></g><g opacity=".1"><path fill="#5fa01b" d="M52.763 222.3c0-2.025 9.123-3.667 20.376-3.667 11.253 0 20.375 1.642 20.375 3.667 0 2.026-9.122 3.668-20.375 3.668s-20.376-1.642-20.376-3.668z"/></g><g><path fill="#5fa01b" d="M24.817 202.136s1.962 2.566-.908 6.434c-2.87 3.868-5.237 7.15-4.29 9.566 0 0 4.33-7.2 7.865-7.3 3.535-.1 1.211-4.353-2.667-8.7z"/></g><g opacity=".1"><path d="M24.817 202.136c.172.247.307.518.4.804 3.44 4.04 5.273 7.81 1.966 7.907-3.077.086-6.791 5.594-7.657 6.985.03.104.065.21.104.314 0 0 4.329-7.199 7.864-7.299 3.536-.1 1.201-4.365-2.677-8.711z"/></g><g><path fill="#ffd037" d="M28.467 205.41c0 .904-.1 1.637-.226 1.637-.125 0-.228-.733-.228-1.637s.128-.479.253-.479c.126 0 .2-.429.2.48z"/></g><g><path fill="#ffd037" d="M29.721 206.483c-.793.432-1.487.693-1.547.586-.061-.107.536-.55 1.33-.983.793-.433.478-.118.54 0 .06.118.47-.032-.323.397z"/></g><g><path fill="#5fa01b" d="M14.443 202.136s-1.955 2.56.905 6.445c2.86 3.885 5.237 7.15 4.29 9.566 0 0-4.33-7.2-7.865-7.3-3.535-.1-1.205-4.364 2.67-8.711z"/></g><g opacity=".1"><path d="M14.443 202.136c-.17.248-.305.519-.4.804-3.439 4.04-5.273 7.81-1.966 7.907 3.081.086 6.792 5.594 7.657 6.985a2.695 2.695 0 0 1-.104.314s-4.329-7.199-7.864-7.299c-3.535-.1-1.198-4.365 2.677-8.711z"/></g><g><path fill="#ffd037" d="M10.794 205.41c0 .904.1 1.637.225 1.637s.229-.733.229-1.637-.13-.479-.254-.479c-.125 0-.2-.429-.2.48z"/></g><g><path fill="#ffd037" d="M9.543 206.483c.793.432 1.483.693 1.544.586.06-.107-.536-.55-1.33-.983-.794-.433-.479-.118-.54 0-.06.118-.468-.032.326.397z"/></g><g><path fill="#a8a8a8" d="M11.416 217.81s5.49-.167 7.149-1.347c1.658-1.18 8.443-2.585 8.854-.694.411 1.891 8.25 9.398 2.052 9.448-6.198.05-14.402-.965-16.054-1.973-1.651-1.008-2.001-5.433-2.001-5.433z"/></g><g opacity=".2"><path d="M29.582 224.56c-6.199.05-14.402-.966-16.054-1.974-1.258-.765-1.758-3.514-1.927-4.783h-.182s.358 4.43 1.998 5.434c1.641 1.004 9.856 2.023 16.054 1.973 1.787 0 2.41-.65 2.374-1.594-.247.575-.93.933-2.263.943z"/></g><g opacity=".1"><path fill="#5fa01b" d="M181.054 168.262c0-3.178 15.043-5.755 33.601-5.755s33.602 2.577 33.602 5.755c0 3.179-15.044 5.756-33.602 5.756-18.558 0-33.601-2.577-33.601-5.756z"/></g><g><path fill="#d38884" d="M207.878 90.59c-.164.349-.284.718-.358 1.097-.021.095-.043.195-.064.3-.215 1.094-.358 2.47-.433 3.27-.035.401-.053.658-.053.658s-7.754-.518-6.41-1.82c.347-.358.593-.802.715-1.286.04-.14.072-.279.1-.422.064-.324.106-.653.125-.983v-.25a10.134 10.134 0 0 0-.075-1.605s2.52 0 4.422.204c1.28.146 2.277.4 2.03.836z"/></g><g><path fill="#d38884" d="M194.437 127.483c-2.642-.086-.693-5.587-.39-6.327.304-.74-.45-2.552-.45-2.552s-.894-5.24-.894-5.584a13.99 13.99 0 0 0-.3-2.123 3.576 3.576 0 0 1 .357-2.08c.304-.476.258-2.381.258-2.381v-2.467l.59-.78 1.505 1.43.418.394.736 2.76-.26 3.953-.14 3.85.911 5.326s.318 6.67-2.341 6.581z"/></g><g opacity=".1"><path d="M195.273 105.274l-2.252-.937v-.364l.587-.78 1.508 1.423z"/></g><g><path fill="#4c4981" d="M194.237 99.64c-.29.711-.5 1.452-.626 2.21a9.795 9.795 0 0 1-.59 2.12l2.503 1.04z"/></g><g opacity=".05"><path d="M194.237 99.64c-.29.711-.5 1.452-.626 2.21a9.795 9.795 0 0 1-.59 2.12l2.503 1.04z"/></g><g><path fill="#d38884" d="M214.169 154.329l-.207.443s-.226 1.469-.226 1.505c0 .035-.65 1.015-.65 1.015l-1.634.357-.693-.085a9.734 9.734 0 0 0-.186-1.201c-.025-.111-.05-.226-.082-.34a9.18 9.18 0 0 0-1.14-2.588s-1.213-2.988-1.645-3.378c-.433-.39-2.08-4.333-1.905-5.283.093-.522.018-2.274-.068-3.732-.072-1.19-.15-2.192-.15-2.192l4.114-2.43.48.754.285.447s0 .085-.018.228v.054a7.628 7.628 0 0 1-.357 1.787s-.308 2.21 0 2.6c.307.389 1.287 5.597 1.505 8.006v.218c.085 1.109.772 2.095 1.462 2.817.043.05.089.097.135.143.307.307.634.593.98.855z"/></g><g opacity=".1"><path d="M210.759 157.556l.693.086 1.634-.357s.65-.983.65-1.015c0-.033.226-1.505.226-1.505l.207-.444.025-.053a8.676 8.676 0 0 1-1.122-.926c-.04-.036-.08-.072-.115-.11-.036-.04.232 1.429-1.012 2.069-.604.31-1.1.55-1.447.715z"/></g><g><path fill="#ceddf9" d="M214.455 154.536l-.233.497s-.225 1.469-.225 1.505c0 .035-.65 1.015-.65 1.015l-1.634.357-.94-.11c0-.19-.032-.458-.079-.783a8.38 8.38 0 0 0-.121-.65c.357-.162.911-.426 1.623-.794 1.247-.64 1.011-2.07 1.011-2.07.27.269.555.522.855.758.171.121.31.218.393.275z"/></g><g opacity=".1"><path d="M214.455 154.536l-.232.497s-.226 1.469-.226 1.505c0 .035-.65 1.015-.65 1.015l-1.634.357-.94-.11c0-.19-.032-.458-.079-.783.2.009.399.036.594.082 0 0 2.23.475 2.338-1.29.064-1.001.271-1.395.436-1.548.171.121.31.218.393.275z"/></g><g><path fill="#cc8294" d="M214.29 154.418s-.554-.122-.664 1.64c-.111 1.763-2.338 1.291-2.338 1.291s-1.094-.272-1.105.182c.037.42.135.832.293 1.223 0 0 .065 1.05.272 1.301.207.25.075 1.18.075 1.18s.086.693 1.809 0c0 0 1.537-.318 2.813-2.23.043-.065-.15-.262.965-.662 1.116-.4 4.29-2.967 4.061-4.222a1.072 1.072 0 0 0-.758-.9 1.304 1.304 0 0 0-.997.135 7.895 7.895 0 0 1-.933.43 4.58 4.58 0 0 1-1.33.317c-.35.03-.696.096-1.033.197-.359.14-.75.18-1.13.118z"/></g><g><path fill="#d38884" d="M201.665 142.286a3.033 3.033 0 0 0-.63.715c-.628.961-1.007 2.305-1.43 2.884-.55.751-.714 2.21-.714 2.21-.147.957-2.177 6.076-2.727 6.984-.551.908-1.316 3.378-1.316 3.378-.468.587-.44 1.459-.393 1.873 0 .072 0 .13.021.168.022.04 0 .068 0 .068v.025l-.75 1.276-2.388-.332-1.233-.836c.1-.164.19-.335.268-.512.66-1.472 1.13-4.103 1.13-4.103s.664-3.003.614-3.704c.017-.956.082-1.91.197-2.86 0 0 1.88-5.737 2.48-6.666.25-.367.406-.791.45-1.233.012-.09.012-.18 0-.268l.809-.805s6.649.912 5.612 1.738z"/></g><g opacity=".1"><path d="M194.501 160.316V160.598l-.75 1.277-2.388-.333-1.233-.836c.1-.164.19-.335.268-.512.6-.171 1.973.315 1.973.315s1.483.283 2.109-.171c0-.004.007-.015.021-.022z"/></g><g><path fill="#ceddf9" d="M193.919 163.723l-2.424.579-2.223-1.645.114-.925c.155-.095.293-.216.407-.358.163-.19.274-.42.322-.665.129-.682 2.242.065 2.242.065s1.544.293 2.144-.197c-.042.449-.003.902.115 1.337.057.212.183.4.357.533.619.425-1.054 1.276-1.054 1.276z"/></g><g opacity=".1"><path d="M193.919 163.723l-2.424.579-2.223-1.645.114-.925a1.6 1.6 0 0 0 .407-.358h.487c.357.036 1.25 1.627 1.25 1.627 2.196.146 2.86-.572 3.086-1.101.057.212.183.399.357.532.619.44-1.054 1.29-1.054 1.29z"/></g><g><path fill="#cc8294" d="M191.53 163.269s-.879-1.591-1.25-1.623a8.421 8.421 0 0 0-.944 0s-.972 2.306-1.33 2.502c-.357.197-.88 1.301-.88 1.301s2.575 2.503 5.062 2.013a5.158 5.158 0 0 1 2.281.568c1.151.6 5.959.147 6.545-.908.436-.793.611-1.369.225-1.787a1.044 1.044 0 0 0-.904-.307c-.604.082-1.962.067-3.153-1.395 0 0-2.195-2.009-2.373-2.012-.18-.004.146 1.877-3.278 1.648z"/></g><g opacity=".1"><path d="M210.466 137.882l-.018.021c-.15.165-1.208 1.326-1.53 1.409-.532.2-1.052.43-1.559.69 0 0-.65.868-1.169.91-.156.024-.31.064-.457.122-.072-1.19-.15-2.19-.15-2.19l4.114-2.424.48.754c.106.304.228.586.267.675z"/></g><g><path fill="#ceddf9" d="M195.51 121.156s-1.602 2.088 0 4.858a16.182 16.182 0 0 0 3.292 4.157l5.454 11.303s1.43-.78 1.952-.822c.522-.043 1.17-.908 1.17-.908.505-.26 1.026-.492 1.558-.693.357-.086 1.548-1.43 1.548-1.43s-.597-1.298-.465-1.645c.132-.346-.39-1.215-.39-1.215a7.15 7.15 0 0 1-.357-1.34c0-.358-.565-1.17-.565-1.17s-.561-.868-.561-1.343c0-.476-.84-2.353-.84-2.353l-.218-8.221z"/></g><g opacity=".05"><path d="M210.466 137.62s-1.202 1.341-1.548 1.43c-.532.202-1.053.434-1.559.694 0 0-.65.865-1.169.908a4.146 4.146 0 0 0-1.072.383c-.465.21-.883.44-.883.44l-5.458-11.304c-.478-.416-.922-.87-1.327-1.358a18.758 18.758 0 0 1-1.966-2.8 4.687 4.687 0 0 1-.622-3.37 3.877 3.877 0 0 1 .622-1.483l3.882-.276 7.732-.55.065 2.434.143 5.787s.125.29.282.673c.246.531.427 1.09.54 1.665 0 .48.561 1.344.561 1.344s.565.822.565 1.17c.076.458.195.908.357 1.343 0 0 .522.865.394 1.209-.13.343.46 1.662.46 1.662z"/></g><g opacity=".1"><path d="M201.665 142.286a3.03 3.03 0 0 0-.63.715c-2.355.171-5.093-1.073-5.804-1.402.011-.089.011-.179 0-.268l.807-.804s6.664.933 5.627 1.759z"/></g><g><path fill="#ceddf9" d="M208.614 123.719s-.358 1.212-.475 1.73c-.118.518-.39 3.078-.39 3.078l-.15.715-2.474 11.796-.54 2.563c-.95.522-3.331-.869-3.331-.869-2.774.308-6.195-1.469-6.195-1.469s.561-1.82.432-2.727c-.128-.908.78-1.648.78-1.648-.215-.822.56-4.418.56-4.418s.176-1.34.827-1.688c.65-.346-.086-.865-.261-1.172a1.326 1.326 0 0 1 .06-.794c.057-.2.124-.396.2-.59-1.65-1.65-1.905-4.232-1.908-5.665-.005-.35.01-.7.046-1.048l3.575-.625 7.81-1.366.798 2.453.2.614z"/></g><g opacity=".1"><path d="M207.878 90.59c-.164.349-.284.718-.358 1.097-.021.095-.043.195-.064.3-.754.49-1.22.493-2.184.493-.333 0-.519-.636-.833-.715 0 0-.472-1.701-.604-.268-.908-.186-1.691.522-2.335-.096v-.25a10.134 10.134 0 0 0-.075-1.606s2.52 0 4.422.204c1.28.15 2.277.404 2.03.84z"/></g><g><path fill="#d38884" d="M209.665 87.672a4.833 4.833 0 0 1-5.795 4.73 4.826 4.826 0 1 1 5.176-7.1c.41.723.624 1.54.619 2.37z"/></g><g opacity=".1"><path d="M207.023 95.258c-.035.4-.053.657-.053.657s-7.754-.518-6.41-1.819a2.86 2.86 0 0 0 .715-1.287l3.364.55s.95.737 1.687 1.43c.21.188.444.345.697.469z"/></g><g opacity=".1"><path d="M208.181 122.836c-.34.045-.688.02-1.018-.075a2.062 2.062 0 0 1-.411-.182c-.651-.39-2.814.089-2.814.089s-5.89.39-6.152 0c-.146-.225-1.186-.193-2.037-.125-.358.029-.661.064-.88.086a3.879 3.879 0 0 1 .622-1.484l3.883-.275 7.81-1.366.797 2.453c.052.296.119.59.2.88z"/></g><g><path fill="#4c4981" d="M204.628 93.62l-4.225-.693c-.151.337-.442.59-.797.694-.561.128-3.074 1.43-4.2 2.988l-1.126 1.562s-.912 1.126-.608 2.034c.304.908.65 3.986.65 3.986l.433 3.42s.822 2.47.565 3.554c-.257 1.083.129 5.63.129 5.63l-.865 5.63s2.941-.39 3.217 0c.275.39 6.152 0 6.152 0s2.144-.479 2.813-.09c.437.236.938.328 1.43.262 0 0-.519-1.788-.218-2.77.3-.984.218-2.818.218-2.818s.432-2.641.214-3.117c-.218-.475.48-2.209.48-2.209l2.294-12.082s-.279-2.166-1.505-2.903c-1.226-.736-2.61-.954-3.346-1.644-.736-.69-1.705-1.433-1.705-1.433z"/></g><g><path fill="#d38884" d="M206.59 105.531v1.43l1.334 3.596.483 3.335s.868 2.381.868 3.217c0 .837 2.12 4.808 2.12 4.808s.58 1.344.29 1.602c-.29.257-2.8 5.977.357 5.805 3.156-.172 2.166-6.148 2.166-6.148l-.432-2.6s-.608-6.498-.608-6.973c0 0-.78-2.77-.865-3.378-.086-.608-.65-3.682-.65-3.682l-.476-1.991z"/></g><g opacity=".1"><path d="M205.072 110.035l-4.708 2.696-1.462 2.209 1.948-1.98z"/></g><g opacity=".1"><path d="M203.645 115.197s-2.145 1.398-3.153 1.398-3.345 2.402-3.345 2.402 3.313-2.145 3.574-2.077c.261.068 2.924-1.723 2.924-1.723z"/></g><g opacity=".1"><path d="M198.155 115.944s-2.013 1.82-1.495 2.016c.519.197 3.218-2.016 3.218-2.016z"/></g><g opacity=".1"><path d="M207.055 109.449s-1.558 2.113-1.136 2.08c.422-.032 1.623-1.236 1.623-1.236z"/></g><g opacity=".1"><path d="M207.28 111.53s-1.687 1.915-1.622 2.402"/></g><g opacity=".1"><path d="M207.706 112.487s-1.137 2.03-.65 2.453"/></g><g opacity=".1"><path d="M206.233 107.272s-.847 1.43-.229 1.526c.619.097.68 0 .68 0z"/></g><g opacity=".1"><path d="M206.47 102.042c-.212.874-.501 1.727-.866 2.55a11.803 11.803 0 0 1-.336-1.277c.357-.463.76-.89 1.201-1.273z"/></g><g opacity=".1"><path d="M209.047 85.302a2.103 2.103 0 0 1-.326.504c-.221.2-.418.426-.586.672a3.606 3.606 0 0 0-.21 1.148c-.065.386-.308.815-.716.826a1.451 1.451 0 0 1-.572-.172.583.583 0 0 0-.568.018.636.636 0 0 0-.183.429c-.049.336-.068.676-.057 1.015 0 .136 0 .268.022.404.1.427.074.874-.075 1.287a1.559 1.559 0 0 1-.801.643c-.36.149-.737.255-1.122.315-.734.09-1.475.114-2.213.071a.546.546 0 0 1-.2-.032.283.283 0 0 1-.086-.053c.082-.407.126-.82.132-1.234a4.826 4.826 0 1 1 7.56-5.84z"/></g><g><path fill="#1e1637" d="M207.03 81.217c-.443-.047-.861.189-1.297.286-.897.196-1.816-.211-2.738-.208a5.082 5.082 0 0 0-2.252.672 5.435 5.435 0 0 0-1.502 1.051c-.439.44-.695 1.03-.715 1.652.061.356.05.72-.032 1.072a3.02 3.02 0 0 1-.329.5c-.23.371-.287.825-.153 1.24.184.408.434.782.74 1.109.593.761.965 1.673 1.497 2.48.233.352.493.683.78.991.046.055.103.1.168.132.063.022.13.032.196.029 1.13.032 2.299.057 3.339-.386.333-.116.616-.343.8-.644.15-.412.178-.859.08-1.287a5.9 5.9 0 0 1 .031-1.43.63.63 0 0 1 .183-.425.572.572 0 0 1 .572-.018c.176.093.37.152.568.172.39 0 .636-.443.715-.83a1.945 1.945 0 0 1 .797-1.819c.543-.69.725-1.596.49-2.441-.258-.805-1.044-1.81-1.938-1.898z"/></g><g opacity=".1"><path d="M211.667 101.746a5.631 5.631 0 0 0 0 1.787c-.043.479 0 3.12 0 3.12-1.43-.435-5.066.433-5.066.433l-.432-1.297a3.217 3.217 0 0 1-.543-1.073c-.136-.42-.248-.847-.336-1.28a26.544 26.544 0 0 1-.426-2.72c-.182-1.376 1.866-2.86 3.417-3.682 1.552-.822 2.91 2.685 2.91 2.685s.647 1.348.476 2.027z"/></g><g><path fill="#4c4981" d="M211.667 101.499a5.649 5.649 0 0 0 0 1.787c-.043.476 0 3.117 0 3.117-1.43-.432-5.066.433-5.066.433l-.432-1.298a3.18 3.18 0 0 1-.543-1.072 11.804 11.804 0 0 1-.336-1.276 26.7 26.7 0 0 1-.426-2.72c-.182-1.38 1.866-2.86 3.417-3.686 1.552-.826 2.91 2.685 2.91 2.685s.647 1.337.476 2.03z"/></g><g opacity=".2"><path d="M208.918 83.115a2.862 2.862 0 0 0-.318-.697c.021.06.043.118.06.178a2.752 2.752 0 0 1-.49 2.442 1.945 1.945 0 0 0-.796 1.82c-.061.385-.308.81-.715.825a1.45 1.45 0 0 1-.572-.172.583.583 0 0 0-.569.018.636.636 0 0 0-.182.43 5.86 5.86 0 0 0-.032 1.43c.04.435.125.904-.079 1.29a1.59 1.59 0 0 1-.8.643c-1.04.443-2.21.418-3.34.386a.518.518 0 0 1-.196-.032.46.46 0 0 1-.168-.132 6.935 6.935 0 0 1-.78-.99c-.532-.808-.904-1.716-1.497-2.481-.16-.208-.357-.411-.49-.63v.043c.183.409.433.784.74 1.109.59.761.966 1.672 1.495 2.48.232.352.494.683.782.99.046.055.102.1.165.133.063.022.13.031.196.028 1.13.033 2.303.058 3.34-.386.332-.115.615-.343.8-.643.15-.412.177-.86.079-1.287a6.28 6.28 0 0 1 .032-1.43.66.66 0 0 1 .182-.425.572.572 0 0 1 .572-.018c.177.093.37.151.568.172.394 0 .637-.444.715-.83a3.51 3.51 0 0 1 .211-1.147c.167-.248.364-.473.586-.672a2.76 2.76 0 0 0 .5-2.445z"/></g><g><path fill="#ffd2c6" d="M243.767 84.055l-3.089 6.563s-.453 1.233-.747 1.462c-.293.229-1.59 4.125-1.59 4.125l-3.314 5.105-.225.357-1.298-.357-.911-3.403.053-.987v-.125s2.045-2.145 2.502-2.306c0 0 .358.043 1.037-1.62.68-1.661 1.301-2.019 1.301-2.019l.358-1.2 3.835-6.11s3.218-4.608 4.093-2.563c.876 2.045-2.005 3.078-2.005 3.078z"/></g><g><path fill="#ffd2c6" d="M230.941 130.675a.74.74 0 0 1-.104.315c-.357.522-2.37 11.142-2.37 11.142.161.715-.293 2.145-.586 2.795-.293.65-.944 4.025-.944 4.025s-.16 7.278-.579 8.415c-.418 1.137.133 3.575.133 3.575-.04 1.119.632 2.305 1.033 2.906l.078.114a5.8 5.8 0 0 0 .215.293c.11.217.265.409.454.562l.093.071c.552.37 1.17.63 1.82.769h.064c.257.057.429.082.429.082l.16.88-1.719.357-3.281.225s-3.868.297-2.989-1.43c.061-.115.114-.235.157-.357.034-.085.064-.17.09-.258.529-1.655.171-3.667.171-3.667l-.747-5.877c-1.233-5.459.97-11.532.97-11.532s-.19-.486.231-1.72c.422-1.233 0-3.931 0-3.931s-.225-3.475-.518-5.194a10.533 10.533 0 0 1-.118-2.192c.014-.428.054-.855.118-1.28l7.403-.982s.426 1.204.336 1.894z"/></g><g opacity=".1"><path d="M230.837 166.625l-1.719.358-3.281.225s-3.868.297-2.989-1.43c.061-.115.114-.235.157-.357.035-.085.064-.17.09-.258.67.022 1.332.155 1.959.393 1.1.426 1.93-.682 1.93-.682l.536-1.023.079-.146c.129.186.214.293.214.293.13.251.317.468.547.633l-.093.19-.518 1.093s.665.068 1.573.214c.365.095.74-.11.858-.468h.064c.257.057.43.082.43.082z"/></g><g><path fill="#626696" d="M232.428 167.433c-.128.586-3.75.765-3.75.765s-2.016-.193-2.58.275c-.565.469-2.227.358-2.292.358-.064 0-.94-.032-1.283-1.605-.343-1.573.447-1.787.482-1.812.701.01 1.395.144 2.049.396 1.1.426 1.93-.682 1.93-.682l.615-1.17c.129.187.214.294.214.294.13.251.317.468.547.633l-.611 1.283s.665.068 1.573.21a.754.754 0 0 0 .922-.714.85.85 0 0 0 0-.097s.565.165 1.266.358c.651.187 1.05.843.918 1.508z"/></g><g><path fill="#ffd2c6" d="M239.252 138.418c-.086.518-.175 1.862-.175 1.862.304 1.126-.475 3.8-.475 3.8l-.39 1.526c.171 1.949-1.072 6.714-1.072 6.714s-.833 4.418-1.266 6.323a5.23 5.23 0 0 0 .225 3.185l.033.079c0 .036.017.071.025.107a2.283 2.283 0 0 0 .475.869c.071.086.149.166.232.24.408.36.875.648 1.38.85l.218.086c.226.084.456.155.69.214h.079l-.175 1.023-2.295-.59-3.075-.998-1.49-.836s0-.082.046-.24a.077.077 0 0 0 0-.028c0-.068.029-.147.047-.24.236-1.34.822-5.09.529-7.864-.358-3.42 1.072-8.143 1.405-9.265a5.6 5.6 0 0 0 .26-1.995c-.564-.822-.693-4.114-.693-4.114s-1.04-2.124-1.898-4.376a11.175 11.175 0 0 1-.618-2.277 7.717 7.717 0 0 1-.126-1.662s6.975-6.366 7.74-.204c.025.211.05.408.075.604.679 5.666.371 6.703.29 7.207z"/></g><g opacity=".1"><path d="M239.252 164.302l-.175 1.022-2.295-.59-3.074-.997-1.512-.865s0-.082.046-.24a.077.077 0 0 0 0-.028c0-.068.029-.147.047-.24h.214c.437-.042.878.018 1.287.176.5.185 1.158.4 1.29.31.233-.099.485-.143.737-.128l.318-.715.05-.107c.096.262.24.505.426.715.076.09.159.174.246.253v.247l-.018.357c.344.22.715.39 1.105.508.1.025.206.025.307 0l.218.086c.226.084.457.155.69.214z"/></g><g><path fill="#626696" d="M238.101 166.493c-.64-.182-2.184-.479-2.434-.25-.25.229-2.392 0-2.392 0a1.301 1.301 0 0 1-1.104-.647c-.447-.694-.086-2.935-.086-2.935h.157l.265-.029a2.86 2.86 0 0 1 1.287.172c.5.19 1.158.404 1.29.315.232-.102.484-.148.737-.133l.357-.804c.097.262.241.505.425.715.076.09.159.173.247.25l-.032.597c.344.219.715.39 1.104.511a.447.447 0 0 0 .53-.168.425.425 0 0 0 .039-.09c.29.137.594.238.908.301a1.659 1.659 0 0 1 1.787 1.273c.34.997-2.445 1.104-3.085.922z"/></g><g opacity=".1"><path d="M230.941 130.675l-.397.122a5.539 5.539 0 0 1-.954.2c-2.052.29-5.43.114-6.502.046.014-.428.053-.855.118-1.28l7.403-.982s.422 1.204.332 1.894z"/></g><g><path fill="#626696" d="M237.4 128.877s-2.716.422-4.929.905c-.736.16-1.43.332-1.927.493a5.873 5.873 0 0 1-.954.204c-2.463.357-6.838.025-6.838.025-1.201-3.897 1.458-8.805 1.458-8.805-.06-.39.554-1.587.554-1.587v-.04l.38-1.39h10.097l.126.597.257 1.216 1.587 7.531z"/></g><g opacity=".1"><path d="M238.966 131.24l-.06.025-1.184.526c-1.28.59-5.108.714-6.434.714a7.72 7.72 0 0 1-.125-1.662s6.974-6.366 7.739-.204c.014.208.04.419.064.601z"/></g><g><path fill="#626696" d="M239.152 130.636l-.247.11-1.183.526c-1.3.6-5.254.715-6.52.715h-.332c-.583-.018-1.17-.565-1.17-.715 0-.078-.06-.464-.11-.793-.046-.265-.082-.494-.082-.494a31.265 31.265 0 0 1-3.932-2.034c-.99-.675-.74-5.476-.55-7.889.067-.833.128-1.38.128-1.38l10.223.597 1.43.083.819.182.218.046s.59 4.29.88 4.647c.289.358.1 1.559.063 2.245 0 .295-.032.588-.096.876 0 0 .422 1.201.325 1.873-.044.473.002.95.136 1.405z"/></g><g><path fill="#ffd2c6" d="M224.017 90.847a4.19 4.19 0 1 1 8.379 0 4.19 4.19 0 0 1-8.379 0z"/></g><g><path fill="#ffd2c6" d="M226.162 92.591s.29 3.968-.522 4.88a36.965 36.965 0 0 1-2.924 2.63l.65 2.696 3.672.421 4.29-4.579-.977-1.183s-.747-2.534-.132-3.8c.615-1.265-4.057-1.065-4.057-1.065z"/></g><g opacity=".1"><path d="M235.027 101.31l-.225.357-1.298-.357-.911-3.403.053-.987.268-.386s1.43.032 1.37 1.333c-.061 1.137.59 3.01.743 3.443z"/></g><g opacity=".1"><path d="M237.85 120.112s-1.032.229-2.215.383c-1.184.153-2.549.236-3.11-.093-.94-.558-6.034-.397-7.507-.34h-.25l.379-1.39h10.098l.125.597 1.43.082.819.182c.15.35.232.58.232.58z"/></g><g><path fill="#ffcde5" d="M232.657 96.788s1.43.032 1.365 1.333c-.064 1.301.78 3.539.78 3.539l-.326.747s-.454 1.82-.096 2.273c.357.454 1.655.454.908 4.19 0 0-.161 2.795.229 3.703.39.908.39 3.085.972 3.997.532.97.988 1.98 1.365 3.02 0 0-4.221.94-5.326.293-1.104-.647-7.893-.325-7.893-.325s.033-1.137 0-1.269a1.051 1.051 0 0 1 .161-.826c.23-.31.587-.829.39-1.283-.197-.454.486-1.126.129-1.83-.358-.704-.79-.844-.715-1.23a1.655 1.655 0 0 0-.4-1.23c-.258-.325-2.013-3.756-2.013-3.756l-.293-1.602s-2.26-1.655-2.217-2.434c.043-.78.855-1.863.855-1.863l2.173-2.144s1.205 1.297 2.374.843c1.169-.454 3.682-2.63 3.682-2.63s.897-.487.961-.844c.065-.358.619-.032.619-.032s.811-.447.972-.29c.275.144.572.241.88.29z"/></g><g><path fill="#ffd2c6" d="M220.378 103.554l-.69.544a9.133 9.133 0 0 0-.868 3.539 46.687 46.687 0 0 1-.876 5.483l-1.366 2.442s-2.241 4.707-2.534 5.959c-.293 1.25-1.623 3.363-1.623 3.363s-4.515 4.057-1.366 4.79c3.15.733 3.25-3.217 3.25-3.217s.715-.811.854-1.365c.14-.554 4.115-7.618 4.115-7.618s1.397-1.902 1.104-2.91c0 0 1.82-4.29 1.82-5.362a18.856 18.856 0 0 0-.294-2.673l.294-2.242z"/></g><g opacity=".1"><path d="M229.733 112.509s-3.181 1.666-3.8 1.755c-.618.09 2.695-.357 2.695-.357z"/></g><g opacity=".1"><path d="M232.328 113.806s-4.222 1.43-6.077 1.173"/></g><g opacity=".1"><path d="M232.593 114.275s-3.804 2.391-6.042 2.002c0 0 5.23 1.04 6.042.486l-2.338-.647s2.595-1.377 2.338-1.841z"/></g><g opacity=".1"><path d="M228.214 83.472a3.954 3.954 0 0 0-3.218.604c-.65.511-1.072 1.294-1.815 1.677a9.727 9.727 0 0 1-1.187.418 3.428 3.428 0 0 0-2.091 3.689c.114.643.414 1.237.564 1.873.265 1.133.029 2.32-.257 3.45a36.36 36.36 0 0 1-3.61 8.954.95.95 0 0 0-.179.6c.04.145.116.276.222.383 1.5 1.734 3.932 2.33 6.237 2.41.847.083 1.7-.059 2.474-.412.478-.275.89-.652 1.205-1.104a5.87 5.87 0 0 0 1.122-3.775c-.06-1.09-.425-2.191-.15-3.246a.829.829 0 0 1 .193-.397c.247-.253.658-.185 1.008-.228.954-.111 1.57-1.116 1.684-2.07.114-.955-.125-1.912-.133-2.86a6.027 6.027 0 0 1 1.134-3.535c.318-.436.714-.865.829-1.412.136-.686-.261-1.19-.604-1.73-.533-.844-.794-1.827-1.605-2.47a4.33 4.33 0 0 0-1.823-.819z"/></g><g><path fill="#985c7e" d="M227.953 83.211a3.932 3.932 0 0 0-3.196.604c-.65.515-1.072 1.298-1.82 1.68-.386.162-.783.301-1.186.415a3.428 3.428 0 0 0-2.091 3.682c.114.643.414 1.237.564 1.873.265 1.133.033 2.32-.257 3.45a36.294 36.294 0 0 1-3.607 8.936.915.915 0 0 0-.179.6.827.827 0 0 0 .219.383c1.5 1.737 3.932 2.33 6.237 2.41.846.083 1.7-.058 2.474-.408a3.795 3.795 0 0 0 1.205-1.108 5.873 5.873 0 0 0 1.118-3.775c-.064-1.072-.429-2.191-.153-3.246a.898.898 0 0 1 .193-.397c.25-.253.658-.185 1.011-.225.951-.11 1.566-1.119 1.68-2.07.115-.95-.125-1.912-.128-2.86a5.991 5.991 0 0 1 1.133-3.53c.315-.44.715-.87.83-1.43.131-.687-.265-1.188-.608-1.73-.533-.841-.794-1.828-1.605-2.471a4.328 4.328 0 0 0-1.834-.783z"/></g><g opacity=".1"><path d="M226.552 123.823s.832 3.9 2.22 4.958"/></g><g opacity=".1"><g opacity=".1"><path d="M219.906 90.471a7.375 7.375 0 0 0-.146-.454"/></g><g opacity=".1"><path d="M231.756 87.09c.015.118.015.238 0 .357-.107.547-.511.976-.83 1.412a6.037 6.037 0 0 0-1.132 3.535c0 .962.243 1.92.128 2.86-.114.94-.715 1.96-1.68 2.066-.357.043-.761-.025-1.008.23a.904.904 0 0 0-.196.396c-.276 1.054.093 2.145.153 3.246a5.873 5.873 0 0 1-1.136 3.77c-.315.454-.726.831-1.205 1.105a4.8 4.8 0 0 1-2.47.412c-2.256-.076-4.647-.658-6.163-2.328a.593.593 0 0 0-.036.315.826.826 0 0 0 .219.382c1.5 1.738 3.932 2.331 6.237 2.41.846.083 1.7-.057 2.474-.408a3.796 3.796 0 0 0 1.205-1.108 5.873 5.873 0 0 0 1.118-3.775c-.064-1.072-.429-2.191-.153-3.245a.898.898 0 0 1 .193-.397c.25-.254.657-.186 1.011-.225.951-.111 1.566-1.12 1.68-2.07.115-.951-.125-1.913-.128-2.86a5.991 5.991 0 0 1 1.133-3.532c.315-.44.715-.868.83-1.43.059-.39-.028-.788-.244-1.118z"/></g></g><g opacity=".1"><path fill="#5fa01b" d="M38.611 178.768c0-.422 3.387-.765 7.564-.765 4.178 0 7.564.343 7.564.765 0 .423-3.386.765-7.564.765-4.177 0-7.564-.342-7.564-.765z"/></g><g><path fill="#5fa01b" d="M48.82 166.121s-9.865 5.098-4.768 11.082a1.895 1.895 0 0 0 1.866 1.211s-.279-.504.783-.907a5.157 5.157 0 0 0 1.072-.565c.449-.31.784-.758.955-1.276 0 0 2.02-2.7.454-7.693 0 0 .203-1.43.025-1.64l-1.198 1.64s1.24.833 1.384 2.055c0 0-1.29-2.051-1.573-1.816-.057.047-.594.898-.594.898s2.145 1.458 2.306 3.35c0 0-1.208-2.65-2.502-3.029l-.737 1.334s2.345 1.43 2.61 3.574c0 0-1.362-2.723-2.753-3.27l-.547 1.408s2.26 1.43 2.467 3.217c0 0-1.891-2.988-2.57-2.892 0 0-.426 1.323-.358 1.73 0 0 1.602 1.073 1.63 2.12 0 0-1.476-1.866-1.705-1.74 0 0-.093 1.872.358 2.859a5.684 5.684 0 0 1-.654-2.86 3.106 3.106 0 0 0-.944 1.523s-.426-1.033.972-1.977c0 0 .132-1.458.293-1.637 0 0-1.512.736-2.145 1.644 0 0 .236-1.35 2.288-2.023l.522-1.43s-2.052.869-2.688 1.634c0 0 .458-1.34 2.86-1.984l.715-1.315s-1.823.614-2.714 1.315c0 0 .69-1.155 2.932-1.684l.579-.825s-1.326.475-1.695.643c-.368.168-.443.086-.443.086a4.748 4.748 0 0 1 2.374-1.073s1.233-1.597 1.144-1.687z"/></g><g><path fill="url(#eeg8a)" d="M76.002 160.438a5.273 5.273 0 0 1 .515-2.792h1.022c.036.24.075.468.125.675.293 1.266-.879 1.863-1.662 2.117zM58.54 175.194c1.033.611 2.649 1.008 4.683-.304l-.022 2.899c.147 1.991 2.603 9.233 2.603 9.233l1.733 5.963a46.624 46.624 0 0 1 1.91 12.965 12.39 12.39 0 0 0 .553 4.082c.923 2.502-.357 5.72-.922 6.91-1.03.357-2.091.625-2.86.804-.087.02-.173.047-.257.079v-.018s-2.602 1.033-3.76.89c-.862-.107-1.402.969-.715 1.759a5.245 5.245 0 0 1-1.734.229c-1.158-.143-1.734 1.848.432 2.416 2.167.568 14.463 0 14.463 0a1.744 1.744 0 0 0 .926-1.927c.944-.035 1.534-.064 1.534-.064s2.17-.994 0-3.693l-.115.09-.464-1.366v-1.848s2.748-13.226 1.88-14.77c-.869-1.545-1.301-9.516-1.301-9.516l.29-8.665c.782-1.62 1.186-4.154 1.39-6.138.294-.947.48-1.924.554-2.913.032-.465.06-.954.079-1.462a9.813 9.813 0 0 0-.526-3.27 32.325 32.325 0 0 1 3.274-4.115 4.215 4.215 0 0 0 1.302-3.693l-.715-4.829-1.738-8.222c.218-2.287-.257-3.603-.786-4.346a46.66 46.66 0 0 0 .332-2.217 28.365 28.365 0 0 0-.507-9.651c-.25-1.105-.594-2.238-1.366-3.074-.88-.948-2.302-1.527-2.627-2.767a9.01 9.01 0 0 0-.2-.933c-.318-.815-1.323-1.108-2.202-1.216-1.566-.189-3.829-.336-5.334.28-1.047.432-2.502 1.611-3.07 2.88a2.47 2.47 0 0 0-.358 1.788c.055.212.14.415.25.604a5.44 5.44 0 0 0-.357 1.905 5.544 5.544 0 0 0 3.539 5.14c.032.108.064.215.093.322.065.254.112.512.14.772-.026.504-.058 1.008-.083 1.509a1.697 1.697 0 0 1-.054.204 37.104 37.104 0 0 0-3.635 1.855c.869 1.276-.143 6.674-.143 6.674-2.17 1.28-4.34 4.547-2.027 7.953 2.313 3.407 1.012 7.06 1.012 7.06l-.358 5.555-.071 1.108h.029l-.03.422h.062v.454c-1.02.357-2.503 1.122-3.385 2.502-.42.685-.93 1.31-1.516 1.86a1.115 1.115 0 0 0 .175 1.85z"/></g><g><path fill="#db8b8b" d="M76.288 215.49l.558 1.67-1.802 1.809-5.984 1.39-4.314-.418.278-1.53a1.841 1.841 0 0 1 1.37-1.348c1.787-.418 5.154-1.365 5.865-2.688z"/></g><g opacity=".1"><path d="M76.288 215.49l.558 1.67-1.802 1.809-5.984 1.39-4.314-.418.278-1.53a1.841 1.841 0 0 1 1.37-1.348c1.787-.418 5.154-1.365 5.865-2.688z"/></g><g><path fill="#2e3037" d="M66.129 219.526l.836-1.115-.836-1.287s-2.502 1.008-3.618.869c-1.115-.14-1.669 1.812.419 2.366 2.087.554 13.916 0 13.916 0s2.087-.972 0-3.617l-1.802 1.39s-3.063 1.673-4.593 1.394z"/></g><g><path fill="#db8b8b" d="M62.372 221.893l4.315.414 5.984-1.39 1.808-1.809-.146-.443-.208-.622-.2-.604-4.035-1.116a2.502 2.502 0 0 1-.82.823c-1.311.893-3.667 1.54-5.046 1.866l-.176.05a1.83 1.83 0 0 0-1.212 1.298z"/></g><g opacity=".1"><path d="M62.372 221.893l4.315.414 5.984-1.39 1.808-1.809-.146-.443-1.662 1.276s-3.06 1.673-4.594 1.394h-4.31l.832-1.115-.75-1.158a1.83 1.83 0 0 0-1.212 1.298z"/></g><g><path fill="#2e3037" d="M63.766 221.475l.833-1.116-.833-1.287s-2.502 1.008-3.62.87c-1.12-.14-1.67 1.811.417 2.365 2.088.554 13.916 0 13.916 0s2.088-.972 0-3.617l-1.808 1.376s-3.06 1.673-4.594 1.394z"/></g><g><path fill="#db8b8b" d="M67.244 140.76s6.681.693 5.72-2.088a5.058 5.058 0 0 1-.208-2.46 6.831 6.831 0 0 1 1.184-2.83l-6.263.975a7.9 7.9 0 0 1 .847 2.01c.733 2.952-1.28 4.392-1.28 4.392z"/></g><g><path fill="#474463" d="M78.655 172.488s-.14 5.984-1.53 8.908l-.294 8.486s.419 7.793 1.252 9.326c.832 1.534-1.81 14.474-1.81 14.474v2.223s-4.45 1.673-5.719-.275l1.273-16.561-.547-22.97z"/></g><g opacity=".1"><path d="M78.655 172.488s-.14 5.984-1.53 8.908l-.294 8.486s.419 7.793 1.252 9.326c.832 1.534-1.81 14.474-1.81 14.474v2.223s-4.45 1.673-5.719-.275l1.273-16.561-.547-22.97z"/></g><g><path fill="#fc6681" d="M81.44 153.281l.832 2.227.697 4.733a4.182 4.182 0 0 1-1.251 3.618c-1.67 1.669-3.896 5.15-3.896 5.15l-2.646-7.924s2.646-.419 2.227-2.227c-.418-1.81-.278-5.151-.278-5.151z"/></g><g opacity=".05"><path d="M81.44 153.281l.832 2.227.697 4.733a4.182 4.182 0 0 1-1.251 3.618c-1.67 1.669-3.896 5.15-3.896 5.15l-2.646-7.924s2.646-.419 2.227-2.227c-.418-1.81-.278-5.151-.278-5.151z"/></g><g opacity=".1"><path d="M69.07 217.146c1.788 2.81 4.562 1.215 5.055.897l-.2-.604-4.035-1.115a2.5 2.5 0 0 1-.82.822z"/></g><g><path fill="#474463" d="M63.487 177.914c.14 1.948 2.503 9.047 2.503 9.047l1.669 5.841a46.316 46.316 0 0 1 1.834 12.705c-.036 1.354.149 2.705.547 4 1.115 3.06-1.112 7.235-1.112 7.235 1.948 3.478 5.287 1.115 5.287 1.115v-2.227s2.645-12.107 1.948-14.474c-.697-2.366-.972-8.768-.972-8.768v-11.55a13.126 13.126 0 0 0 3.803-8.315c.036-.454.06-.932.079-1.43.114-3.141-2.034-6.82-2.86-8.135-.2-.315-.325-.494-.325-.494l-12.304 4.876h-.029v1.53z"/></g><g opacity=".1"><path d="M67.663 134.357c.373.627.659 1.303.847 2.01 1.373.524 2.9.469 4.232-.155a6.831 6.831 0 0 1 1.183-2.83z"/></g><g><path fill="#db8b8b" d="M65.017 131.018a5.426 5.426 0 1 1 10.853 0 5.426 5.426 0 0 1-10.853 0z"/></g><g opacity=".1"><path d="M63.487 168.87h.058c5.837 1.198 13.161-4.883 13.161-4.883a7.463 7.463 0 0 1-.507-1.036c-.2-.315-.326-.494-.326-.494l-12.29 4.883-.031.486z"/></g><g><path fill="#fc6681" d="M65.035 140.62s7.793-4.733 10.299-2.785l3.478 4.454s2.227.694 1.809 5.148l1.669 8.071-5.005 1.255s-2.956 2.781-.579 6.824c0 0-7.374 6.123-13.226 4.872l.415-6.542s1.255-3.617-.972-6.956c-2.227-3.338-.14-6.541 1.948-7.796.007-.021.983-5.294.164-6.545z"/></g><g><path fill="#db8b8b" d="M64.6 169.01s-2.921.554-4.316 2.78c-.4.67-.89 1.283-1.454 1.82a1.104 1.104 0 0 0 .171 1.762c1.105.662 2.906 1.073 5.18-.797 3.896-3.203.418-5.565.418-5.565z"/></g><g opacity=".1"><path d="M68.914 143.262s2.784-.28 3.478 6.96c.693 7.238 1.809 8.907 1.809 8.907s.697 3.757-.973 5.984-4.872 6.957-4.872 6.957-3.478.975-4.175-2.503l4.314-8.071s.697-2.781-.972-4.73c-1.67-1.948-2.924-14.895 1.39-13.504z"/></g><g><path fill="#fc6681" d="M68.635 142.854s2.784-.279 3.478 6.956c.693 7.235 1.812 8.908 1.812 8.908s.694 3.757-.976 5.984c-1.669 2.227-4.872 6.956-4.872 6.956s-3.478.976-4.175-2.502l4.315-8.071s.697-2.785-.973-4.733c-1.67-1.948-2.924-14.9 1.39-13.498z"/></g><g opacity=".1"><path d="M66.34 148.062s-.279 4.315.972 6.681c1.251 2.367 1.255 5.427 0 7.1"/></g><g opacity=".1"><path d="M65.643 142.775s1.115-1.111 4.314-1.25c3.2-.14 4.594-1.116 4.594-1.116"/></g><g opacity=".1"><path d="M73.385 124.001c.844.104 1.813.394 2.117 1.19.08.302.145.608.193.916.314 1.215 1.683 1.787 2.527 2.713.747.819 1.072 1.93 1.315 3.01a28.31 28.31 0 0 1 .49 9.455c-.271 2.309-.826 4.582-.983 6.899-.157 2.316.129 4.758 1.398 6.706.543.836 1.262 1.573 1.648 2.502-.797.647-1.898.74-2.924.776a55.882 55.882 0 0 1-3.575 0 3.825 3.825 0 0 1-1.827-.38 2.792 2.792 0 0 1-.958-1.029c-.682-1.161-.857-2.556-.829-3.907.029-1.351.243-2.688.268-4.035 0-.737-.043-1.516-.465-2.117a6.86 6.86 0 0 0-1.168-1.072c-1.487-1.32-1.999-3.439-2.049-5.426-.05-1.988.276-3.983.108-5.966-.065-.776-.358-1.71-1.12-1.86a4.851 4.851 0 0 1-.714-.092c-.615-.236-.554-1.101-.715-1.734-.197-.715-.8-1.258-.972-1.977-.4-1.683 1.74-3.692 3.145-4.29 1.405-.596 3.582-.468 5.09-.282z"/></g><g><path fill="#472727" d="M73.525 123.723c.844.107 1.809.396 2.116 1.19.08.302.145.61.193.919.315 1.215 1.684 1.787 2.527 2.71.748.818 1.073 1.93 1.316 3.009.693 3.102.858 6.298.49 9.455-.272 2.31-.826 4.583-.983 6.899-.158 2.316.128 4.758 1.397 6.706.544.836 1.262 1.573 1.648 2.502-.797.647-1.898.74-2.924.776-1.191.038-2.389.038-3.592 0a3.825 3.825 0 0 1-1.827-.379 2.81 2.81 0 0 1-.958-1.026c-.686-1.165-.858-2.56-.83-3.91.03-1.352.244-2.689.269-4.036 0-.733-.043-1.516-.465-2.117-.348-.4-.74-.76-1.169-1.072-1.487-1.319-2.002-3.435-2.052-5.426-.05-1.991.28-3.982.111-5.966-.064-.776-.357-1.709-1.119-1.86a4.855 4.855 0 0 1-.715-.092c-.615-.236-.554-1.101-.715-1.734-.196-.715-.8-1.258-.972-1.977-.4-1.68 1.74-3.692 3.146-4.29 1.405-.596 3.6-.453 5.108-.281z"/></g><g opacity=".1"><path fill="#5fa01b" d="M334.992 247.605c0-.651 3.84-1.18 8.579-1.18 4.738 0 8.579.529 8.579 1.18 0 .652-3.841 1.18-8.58 1.18-4.737 0-8.578-.528-8.578-1.18z"/></g><g opacity=".1"><path fill="#5fa01b" d="M302.126 250.94c0-.651 3.841-1.18 8.58-1.18 4.738 0 8.579.529 8.579 1.18 0 .652-3.841 1.18-8.58 1.18-4.738 0-8.579-.528-8.579-1.18z"/></g><g opacity=".1"><path fill="#5fa01b" d="M263.417 246.43c0-.652 3.84-1.18 8.579-1.18 4.738 0 8.579.528 8.579 1.18 0 .65-3.841 1.179-8.58 1.179-4.737 0-8.578-.528-8.578-1.18z"/></g><g opacity=".1"><path fill="#5fa01b" d="M317.762 260.427c0-.462 2.73-.836 6.098-.836s6.099.374 6.099.836c0 .462-2.73.837-6.099.837-3.368 0-6.098-.375-6.098-.837z"/></g><g opacity=".1"><path fill="#5fa01b" d="M283.653 259.587c0-.462 2.73-.836 6.098-.836s6.098.374 6.098.836c0 .462-2.73.837-6.098.837s-6.098-.375-6.098-.837z"/></g><g><path fill="#5fa01b" d="M310.523 250.672s12.032-39.442-1.884-55.242c-10.409-11.818-22.223-10.406-27.524-8.937a9.784 9.784 0 0 0-6.313 5.248c-1.848 3.989-1.516 10.47 11.546 18.03 21.866 12.658 23.235 30.027 23.235 30.027z"/></g><g><path fill="none" stroke="#565987" stroke-miterlimit="20" d="M283.006 192.08s35.47 11.082 27.524 58.592"/></g><g><path fill="none" stroke="#565987" stroke-miterlimit="20" d="M303.724 196.059s-4.886 3.289-3.331 8.222"/></g><g><path fill="none" stroke="#565987" stroke-miterlimit="20" d="M286.563 198.976s2.988-3.039 6.62-1.362"/></g><g><path fill="none" stroke="#565987" stroke-miterlimit="20" d="M300.604 214.26s5.24-2.659 6.595.673"/></g><g><path fill="none" stroke="#565987" stroke-miterlimit="20" d="M313.558 219.809s-3.932-.315-4.007 1.57"/></g><g><path fill="#5fa01b" d="M311.01 250.987s-14.092-28.669-17.963-28.04c-1.838.297-2.685 2.106-3.07 3.932a11.535 11.535 0 0 0 .768 6.978c1.994 4.58 7.356 13.29 20.264 17.13z"/></g><g><path fill="none" stroke="#565987" stroke-miterlimit="20" d="M293.15 228.388s14.792 21.448 17.652 22.391"/></g><g><path fill="none" stroke="#565987" stroke-miterlimit="20" d="M291.789 231.737h3.453"/></g><g><path fill="none" stroke="#565987" stroke-miterlimit="20" d="M295.924 239.584l5.412.232"/></g><g><path fill="none" stroke="#565987" stroke-miterlimit="20" d="M299.217 233.307l-.587 2.82"/></g><g><path fill="none" stroke="#565987" stroke-miterlimit="20" d="M304.972 241.886l-.104 2.563"/></g><g><path fill="#5fa01b" d="M310.591 250.987s14.091-28.669 17.963-28.04c1.84.297 2.688 2.106 3.07 3.932.475 2.35.207 4.788-.768 6.978-2.013 4.58-7.375 13.29-20.265 17.13z"/></g><g><path fill="none" stroke="#565987" stroke-miterlimit="20" d="M328.45 228.388s-14.792 21.448-17.648 22.391"/></g><g><path fill="none" stroke="#565987" stroke-miterlimit="20" d="M329.808 231.737h-3.453"/></g><g><path fill="none" stroke="#565987" stroke-miterlimit="20" d="M325.673 239.584l-5.412.232"/></g><g><path fill="none" stroke="#565987" stroke-miterlimit="20" d="M322.38 233.307l.587 2.82"/></g><g><path fill="none" stroke="#565987" stroke-miterlimit="20" d="M316.625 241.886l.104 2.563"/></g><g><path fill="#5fa01b" d="M286.394 257.682a2.434 2.434 0 0 1-.8-1.212 1.072 1.072 0 0 1 .561-1.233c.515-.197 1.072.16 1.48.522.407.36.894.772 1.43.697a2.205 2.205 0 0 1-.68-2.055.865.865 0 0 1 .19-.415c.286-.308.804-.175 1.147.064 1.073.765 1.391 2.245 1.398 3.575.054-.49.054-.984 0-1.473a1.512 1.512 0 0 1 .554-1.301c.259-.14.55-.21.844-.2.49-.07.988.072 1.369.39.415.443.307 1.19-.054 1.68-.406.458-.89.841-1.43 1.133a3.18 3.18 0 0 0-1.011.965c-.03.055-.055.112-.075.171h-3.064a8.47 8.47 0 0 1-1.858-1.308z"/></g><g><path fill="#5fa01b" d="M340.093 246.136a2.434 2.434 0 0 1-.801-1.212 1.072 1.072 0 0 1 .558-1.23c.514-.2 1.072.158 1.483.519.411.36.894.772 1.43.715a2.205 2.205 0 0 1-.68-2.056.865.865 0 0 1 .19-.414c.286-.308.805-.175 1.148.064 1.072.765 1.39 2.245 1.397 3.575.054-.49.054-.984 0-1.473a1.512 1.512 0 0 1 .554-1.301c.259-.14.55-.21.844-.2.49-.071.987.07 1.366.39.418.442.307 1.19-.054 1.68-.406.458-.89.842-1.43 1.132a3.18 3.18 0 0 0-1.012.966c-.029.055-.054.112-.075.171h-3.063a8.462 8.462 0 0 1-1.855-1.326z"/></g><g><path fill="#5fa01b" d="M322.198 257.682a2.442 2.442 0 0 1-.804-1.212 1.072 1.072 0 0 1 .561-1.233c.515-.197 1.072.16 1.483.522.412.36.894.772 1.43.697a2.19 2.19 0 0 1-.679-2.055.832.832 0 0 1 .19-.415c.286-.308.8-.175 1.144.064 1.072.765 1.394 2.245 1.397 3.575.061-.489.068-.983.022-1.473a1.509 1.509 0 0 1 .55-1.301c.259-.14.55-.209.844-.2.49-.07.988.071 1.369.39.414.443.307 1.19-.054 1.68a5.273 5.273 0 0 1-1.43 1.133c-.406.24-.752.57-1.011.965a.916.916 0 0 0-.075.171h-3.067a8.447 8.447 0 0 1-1.87-1.308z"/></g><g><path fill="#5fa01b" d="M271.442 234.343s-1.151 1.502.529 3.771c1.68 2.27 3.067 4.186 2.502 5.602 0 0-2.534-4.215-4.597-4.29-2.062-.075-.704-2.56 1.566-5.083z"/></g><g opacity=".1"><path d="M271.442 234.343a1.788 1.788 0 0 0-.236.472c-2.013 2.363-3.085 4.572-1.151 4.626 1.805.053 3.968 3.278 4.482 4.09a1.13 1.13 0 0 1-.06.185s-2.535-4.215-4.597-4.29c-2.063-.075-.708-2.56 1.562-5.083z"/></g><g><path fill="#ffd037" d="M269.304 236.26c0 .528.06.957.132.957.072 0 .133-.429.133-.958 0-.529-.072-.279-.147-.279s-.118-.25-.118.28z"/></g><g><path fill="#ffd037" d="M268.571 236.892c.465.25.87.404.905.34.036-.065-.311-.322-.776-.576-.465-.254-.282-.068-.318 0-.036.068-.275-.018.19.236z"/></g><g><path fill="#5fa01b" d="M277.515 234.343s1.148 1.502-.533 3.771c-1.68 2.27-3.063 4.186-2.502 5.602 0 0 2.535-4.215 4.6-4.29 2.067-.075.705-2.56-1.565-5.083z"/></g><g opacity=".1"><path d="M277.515 234.343c.1.146.178.305.233.472 2.016 2.363 3.088 4.572 1.15 4.626-1.787.053-3.964 3.278-4.482 4.09 0 .063.04.124.06.185 0 0 2.535-4.215 4.601-4.29 2.066-.075.708-2.56-1.562-5.083z"/></g><g><path fill="#ffd037" d="M279.65 236.26c0 .528-.058.957-.133.957-.075 0-.132-.429-.132-.958 0-.529.075-.279.146-.279.072 0 .118-.25.118.28z"/></g><g><path fill="#ffd037" d="M280.385 236.892c-.464.25-.872.404-.904.34-.032-.065.311-.322.776-.576.464-.254.282-.068.318 0 .036.068.275-.018-.19.236z"/></g><g><path fill="#a8a8a8" d="M279.284 243.52s-3.217-.1-4.182-.79c-.965-.69-4.944-1.513-5.183-.405-.24 1.108-4.833 5.502-1.201 5.53 3.632.029 8.429-.565 9.398-1.154.968-.59 1.168-3.182 1.168-3.182z"/></g><g opacity=".2"><path d="M268.65 247.47c3.632.028 8.433-.566 9.401-1.155.733-.447 1.03-2.056 1.126-2.8h.108s-.204 2.592-1.17 3.182c-.965.59-5.769 1.183-9.397 1.155-1.047 0-1.412-.383-1.39-.933.146.336.543.543 1.322.55z"/></g><g opacity=".1"><path fill="#5fa01b" d="M47.387 252.402c0-1.012 5.557-1.833 12.411-1.833 6.855 0 12.411.82 12.411 1.833s-5.556 1.834-12.41 1.834c-6.855 0-12.412-.82-12.412-1.834z"/></g><g opacity=".1"><path fill="#5fa01b" d="M77.44 268.863c0-1.012 5.556-1.833 12.41-1.833 6.855 0 12.411.82 12.411 1.833s-5.556 1.834-12.41 1.834c-6.855 0-12.412-.82-12.412-1.834z"/></g><g opacity=".1"><path fill="#5fa01b" d="M214.215 225.971c0-.507 3.68-.918 8.219-.918 4.538 0 8.218.411 8.218.918 0 .508-3.68.92-8.218.92-4.54 0-8.219-.412-8.219-.92z"/></g><g opacity=".1"><path fill="#5fa01b" d="M175.799 252.402c0-.507 3.68-.918 8.218-.918 4.539 0 8.218.41 8.218.918s-3.68.919-8.218.919c-4.539 0-8.218-.411-8.218-.919z"/></g><g opacity=".1"><path fill="#5fa01b" d="M158.48 268.863c0-.507 3.68-.918 8.218-.918 4.539 0 8.218.411 8.218.918 0 .508-3.68.92-8.218.92-4.539 0-8.218-.412-8.218-.92z"/></g></g></g></svg>