<svg xmlns="http://www.w3.org/2000/svg" width="340" height="302" viewBox="0 0 340 302"><defs><linearGradient id="y2kca" x1="175.24" x2="175.24" y1="227.16" y2="20.88" gradientUnits="userSpaceOnUse"><stop offset="0" stop-color="gray" stop-opacity=".25"/><stop offset=".54" stop-color="gray" stop-opacity=".12"/><stop offset="1" stop-color="gray" stop-opacity=".1"/></linearGradient><linearGradient id="y2kcb" x1="175.43" x2="175.43" y1="34.56" y2="17.08" gradientUnits="userSpaceOnUse"><stop offset="0" stop-color="gray" stop-opacity=".25"/><stop offset=".54" stop-color="gray" stop-opacity=".12"/><stop offset="1" stop-color="gray" stop-opacity=".1"/></linearGradient><linearGradient id="y2kcc" x1="175.43" x2="175.43" y1="20.66" y2="-.01" gradientUnits="userSpaceOnUse"><stop offset="0" stop-color="gray" stop-opacity=".25"/><stop offset=".54" stop-color="gray" stop-opacity=".12"/><stop offset="1" stop-color="gray" stop-opacity=".1"/></linearGradient><linearGradient id="y2kcd" x1="124.91" x2="124.91" y1="86.22" y2="55.07" gradientUnits="userSpaceOnUse"><stop offset="0" stop-color="gray" stop-opacity=".25"/><stop offset=".54" stop-color="gray" stop-opacity=".12"/><stop offset="1" stop-color="gray" stop-opacity=".1"/></linearGradient><linearGradient id="y2kce" x1="125.01" x2="125.01" y1="147.96" y2="116.81" gradientUnits="userSpaceOnUse"><stop offset="0" stop-color="gray" stop-opacity=".25"/><stop offset=".54" stop-color="gray" stop-opacity=".12"/><stop offset="1" stop-color="gray" stop-opacity=".1"/></linearGradient><linearGradient id="y2kcf" x1="125.12" x2="125.12" y1="208.93" y2="177.78" gradientUnits="userSpaceOnUse"><stop offset="0" stop-color="gray" stop-opacity=".25"/><stop offset=".54" stop-color="gray" stop-opacity=".12"/><stop offset="1" stop-color="gray" stop-opacity=".1"/></linearGradient><linearGradient id="y2kcg" x1="124.9" x2="124.9" y1="78.11" y2="62.82" gradientUnits="userSpaceOnUse"><stop offset="0" stop-color="gray" stop-opacity=".25"/><stop offset=".54" stop-color="gray" stop-opacity=".12"/><stop offset="1" stop-color="gray" stop-opacity=".1"/></linearGradient><linearGradient id="y2kch" x1="310.29" x2="310.29" y1="73.31" y2="15.95" gradientUnits="userSpaceOnUse"><stop offset="0" stop-color="gray" stop-opacity=".25"/><stop offset=".54" stop-color="gray" stop-opacity=".12"/><stop offset="1" stop-color="gray" stop-opacity=".1"/></linearGradient><linearGradient id="y2kci" x1="310.29" x2="310.29" y1="66.85" y2="26.2" gradientUnits="userSpaceOnUse"><stop offset="0" stop-color="gray" stop-opacity=".25"/><stop offset=".54" stop-color="gray" stop-opacity=".12"/><stop offset="1" stop-color="gray" stop-opacity=".1"/></linearGradient><linearGradient id="y2kcj" x1="246.27" x2="246.27" y1="302" y2="235.52" gradientUnits="userSpaceOnUse"><stop offset="0" stop-color="gray" stop-opacity=".25"/><stop offset=".54" stop-color="gray" stop-opacity=".12"/><stop offset="1" stop-color="gray" stop-opacity=".1"/></linearGradient><linearGradient id="y2kck" x1="46.46" x2="46.46" y1="176.35" y2="121.46" gradientUnits="userSpaceOnUse"><stop offset="0" stop-color="gray" stop-opacity=".25"/><stop offset=".54" stop-color="gray" stop-opacity=".12"/><stop offset="1" stop-color="gray" stop-opacity=".1"/></linearGradient></defs><g><g><g opacity=".5"><g opacity=".5"><path fill="url(#y2kca)" d="M100.589 227.162V20.884h149.295v206.278z"/></g></g><g opacity=".1"><path fill="#5fa01b" d="M208.867 79.148c-14.552 10.188-33.426 9.53-49.966 4.229-16.54-5.302-31.734-14.74-47.849-21.448a155.491 155.491 0 0 0-42.04-10.959c-20.54-2.35-43.476.513-57.785 16.99-15.936 18.34-14.712 51.426 2.517 68.274 8.769 8.564 20.25 12.768 30.261 19.454s19.287 17.782 18.434 30.682c-.79 11.956-9.967 21.118-19.466 26.872-7.34 4.446-16.38 9.3-17.264 18.51-.855 8.91 6.746 15.892 14.005 19.862 23.678 12.957 52.857 12.83 76.454-.314 8.413-4.704 16.14-10.946 24.966-14.59 23.172-9.602 48.707.067 73.245 3.6a146.421 146.421 0 0 0 62.296-4.534c12.151-3.59 24.35-9.077 32.885-19.3 6.157-7.37 9.993-16.696 13.592-25.912a1025.09 1025.09 0 0 0 11.072-29.679c2.123-5.978 4.216-12.075 4.766-18.475.994-11.594-3.196-23.055-8.904-32.84-13.55-23.251-36.374-39.587-61.091-43.737-24.717-4.15-50.866 3.955-70.036 21.69"/></g><g><path fill="#fff" d="M102.488 224.123V22.403h145.497v201.72z"/></g><g><path fill="url(#y2kcb)" d="M139.337 34.56V17.078h72.179V34.56z"/></g><g><path fill="url(#y2kcc)" d="M175.426 16.284a5.96 5.96 0 1 1 5.805-5.96 5.892 5.892 0 0 1-5.805 5.96zm0-16.294c-5.572 0-10.09 4.627-10.09 10.333s4.518 10.333 10.09 10.333c5.573 0 10.09-4.627 10.09-10.333 0-5.705-4.517-10.333-10.09-10.333z"/></g><g><path fill="#5fa01b" d="M140.097 33.8V17.085h70.659V33.8z"/></g><g><path fill="#5fa01b" d="M175.426 16.326a5.698 5.698 0 1 1 0-11.397 5.698 5.698 0 0 1 0 11.397zm0-15.576c-5.455 0-9.877 4.422-9.877 9.877 0 5.455 4.422 9.877 9.877 9.877 5.455 0 9.877-4.422 9.877-9.877 0-5.455-4.422-9.877-9.877-9.877z"/></g><g><path fill="url(#y2kcd)" d="M109.326 86.225V55.074h31.15v31.15z"/></g><g><path fill="url(#y2kce)" d="M109.433 147.956v-31.15h31.15v31.15z"/></g><g><path fill="url(#y2kcf)" d="M109.539 208.928v-31.15h31.15v31.15z"/></g><g><path fill="#69f0ae" d="M110.466 85.085V56.214h28.871v28.871z"/></g><g><path fill="#5fa01b" d="M110.466 146.247v-28.872h28.871v28.872z"/></g><g><path fill="#5fa01b" d="M110.466 207.408v-28.871h28.871v28.871z"/></g><g><path fill="#e0e0e0" d="M158.332 67.888v-2.762h39.572v2.762z"/></g><g><path fill="#e0e0e0" d="M158.332 72.032V69.27h65.34v2.762z"/></g><g><path fill="#e0e0e0" d="M158.332 76.173V73.41h60.74v2.762z"/></g><g><path fill="#e0e0e0" d="M158.332 129.05v-2.763h39.572v2.762z"/></g><g><path fill="#e0e0e0" d="M158.332 133.194v-2.762h65.34v2.762z"/></g><g><path fill="#e0e0e0" d="M158.332 137.335v-2.762h60.74v2.762z"/></g><g><path fill="#e0e0e0" d="M158.332 190.21v-2.76h39.572v2.76z"/></g><g><path fill="#e0e0e0" d="M158.332 194.355v-2.761h65.34v2.761z"/></g><g><path fill="#e0e0e0" d="M158.332 198.496v-2.762h60.74v2.762z"/></g><g><path fill="url(#y2kcg)" d="M118.348 68.928l5.243 4.81 7.427-10.922 2.62 2.184-10.047 13.106-7.427-8.3z"/></g><g><path fill="#fff" d="M119.203 69.13l4.559 4.179 6.458-9.498 2.28 1.9-8.738 11.396-6.458-7.217z"/></g><g><path fill="#fff" d="M119.203 130.671l4.559 4.18 6.458-9.498 2.28 1.9-8.738 11.396-6.458-7.218z"/></g><g><path fill="#fff" d="M119.203 192.213l4.559 4.179 6.458-9.497 2.28 1.899-8.738 11.396-6.458-7.217z"/></g><g opacity=".5"><g opacity=".5"><path fill="none" stroke="#69f0ae" stroke-miterlimit="20" stroke-width="5" d="M255 133h2"/></g><g opacity=".5"><path fill="none" stroke="#69f0ae" stroke-dasharray="11.54 11.54" stroke-miterlimit="20" stroke-width="5" d="M261.676 133.33h50.407"/></g><g opacity=".5"><path fill="none" stroke="#69f0ae" stroke-miterlimit="20" stroke-width="5" d="M314.275 133.33v0h2.28v0-2.279 0"/></g><g opacity=".5"><path fill="none" stroke="#69f0ae" stroke-dasharray="11.45 11.45" stroke-miterlimit="20" stroke-width="5" d="M316.554 126.702v-41.34"/></g><g opacity=".5"><path fill="none" stroke="#69f0ae" stroke-miterlimit="20" stroke-width="5" d="M316 83v-2"/></g></g><g opacity=".5"><path fill="none" stroke="#69f0ae" stroke-dasharray="12 12" stroke-miterlimit="20" stroke-width="5" d="M95.65 69.32v0H44.746v47.865"/></g><g opacity=".5"><path fill="none" stroke="#69f0ae" stroke-dasharray="12 12" stroke-miterlimit="20" stroke-width="5" d="M124.902 232.29v27.353h75.977v0"/></g><g opacity=".5"><g opacity=".5"><path fill="url(#y2kch)" d="M339.56 40.672l-29.274-24.726-28.818 24.673-.258-.144v.197h-.198l.198.11V73.31h58.152l-.353-.198h.551z"/></g></g><g><path fill="#fff" d="M338.398 71.979h-55.844v-31.15l27.732-23.744 28.112 23.743z"/></g><g><path fill="#e0e0e0" d="M282.174 40.828l27.732 15.576 28.112-15.576"/></g><g opacity=".5"><g opacity=".5"><path fill="url(#y2kci)" d="M310.484 56.012L293.38 66.85V26.203h33.81v20.673z"/></g></g><g><path fill="#fafafa" d="M310.476 56.214L294.141 66.85V26.962h32.29v20.286z"/></g><g opacity=".05"><path d="M282.364 71.789h55.844l-55.844-31.15z"/></g><g><path fill="#f5f5f5" d="M282.364 72.169h55.844l-55.844-31.15z"/></g><g><path fill="#fff" d="M299 35v-2h23v2z"/></g><g><path fill="#fff" d="M299 38v-2h23v2z"/></g><g><path fill="#5fa01b" d="M299 40v-1h23v1z"/></g><g><path fill="#fff" d="M299 43v-1h23v1z"/></g><g><path fill="#5fa01b" d="M299 47v-3h23v3z"/></g><g opacity=".05"><path d="M326.431 47.476v-.76l-16.616 9.236.452.25z"/></g><g opacity=".5"><g opacity=".5"><path fill="url(#y2kcj)" d="M213.233 302v-66.48h66.08V302z"/></g></g><g><path fill="#f5f5f5" d="M215 301v-64h62v64z"/></g><g><path fill="#fff" d="M219 288v-49h56v49z"/></g><g><path fill="#e0e0e0" d="M274.387 271.989c-15.329 0-27.732-3.909-27.732-8.737-15.328 0-27.732 3.4-27.732 7.597v18.235h55.464z"/></g><g><path fill="#5fa01b" d="M259 249.5c0-3.038 2.91-5.5 6.5-5.5s6.5 2.462 6.5 5.5-2.91 5.5-6.5 5.5-6.5-2.462-6.5-5.5z"/></g><g opacity=".5"><g opacity=".5"><path fill="url(#y2kck)" d="M7.707 176.353v-54.894h77.496v54.894z"/></g></g><g><path fill="#fff" d="M10 174v-51h73v51z"/></g><g><path fill="#e0e0e0" d="M47.956 136.119c-.61.001-1.22.042-1.824.121l1.824 13.935-14.022-.935c-.019.308-.034.62-.034.935 0 7.762 6.293 14.055 14.056 14.055 7.762 0 14.055-6.293 14.055-14.055 0-7.763-6.293-14.056-14.055-14.056z"/></g><g><path fill="#5fa01b" d="M43.093 133.581a14.056 14.056 0 0 0-12.198 13l14.021.934z"/></g></g></g></svg>