<svg xmlns="http://www.w3.org/2000/svg" width="363" height="257" viewBox="0 0 363 257"><g><g><g opacity=".1"><path fill="#5fa01b" d="M223.45 62.63c-15.51 10.86-35.627 10.158-53.256 4.508-17.63-5.651-33.823-15.711-51-22.861a165.732 165.732 0 0 0-44.809-11.68c-21.891-2.505-46.338.547-61.59 18.109-16.985 19.547-15.68 54.812 2.683 72.77 9.346 9.128 21.583 13.608 32.254 20.734 10.67 7.127 20.557 18.954 19.648 32.703-.842 12.744-10.624 22.509-20.748 28.642-7.824 4.739-17.458 9.913-18.4 19.729-.913 9.497 7.19 16.938 14.926 21.17 25.238 13.81 56.338 13.676 81.49-.335 8.966-5.013 17.202-11.667 26.609-15.55 24.698-10.235 51.915.07 78.069 3.836a156.064 156.064 0 0 0 66.398-4.832c12.952-3.826 25.953-9.675 35.05-20.57 6.564-7.857 10.652-17.797 14.488-27.62a1092.754 1092.754 0 0 0 11.8-31.633c2.264-6.371 4.494-12.87 5.081-19.691 1.06-12.358-3.407-24.574-9.49-35.004-14.443-24.782-38.77-42.193-65.114-46.616-26.345-4.424-54.216 4.215-74.649 23.118"/></g><g><path fill="#a0616a" d="M301.399 119.616a3.847 3.847 0 0 1-.752 5.663l-18.768 12.886-8.264 5.51a2.272 2.272 0 1 1-2.401-3.855l8.004-4.649 13.97-13.304-8.981-9.646 6.652-4.99z"/></g><g><path fill="#a0616a" d="M257.265 240.942h-4.59l-2.727-37.918 11.641-.332z"/></g><g><path fill="#2f2e41" d="M257.598 253.249c-1.224.559-2.25-3.968-3.282-2.953-2.888 2.838-7.311 3.456-11.166 2.217l1.349-.015a1.805 1.805 0 0 1-1.138-2.353 1.805 1.805 0 0 1 1.253-1.118l3.071-.767 4.823-8.482 4.924-.333a11.763 11.763 0 0 1 2.175 10.035c-.447 1.823-1.136 3.37-2.009 3.769z"/></g><g><path fill="#a0616a" d="M287.833 240.942h-4.591l-2.727-37.918 11.975-2.328z"/></g><g><path fill="#2f2e41" d="M288.165 253.249c-1.224.558-2.249-3.968-3.282-2.953-2.888 2.838-7.31 3.456-11.166 2.217l1.35-.015a1.805 1.805 0 0 1-1.138-2.353 1.805 1.805 0 0 1 1.252-1.118l3.072-.767 4.823-8.482 5.256-.665.133.217a13.552 13.552 0 0 1 1.452 11.081c-.437 1.401-1.032 2.51-1.752 2.838z"/></g><g><path fill="#5fa01b" d="M293.038 108.09c-4.222.587-7.144 2.899-8.335 7.511l-7.76-14.328a4.243 4.243 0 0 1 7.115-4.544z"/></g><g><path fill="#2f2e41" d="M301.17 199.033c-18.868 8.348-38.178 9.376-57.874 3.991 7.192-27.895 15.685-53.12 15.632-73.84l19.292-1.663 2.97 4.71a104.47 104.47 0 0 1 14.336 36.564z"/></g><g><path fill="#a0616a" d="M259.594 76.299c0-5.511 4.467-9.979 9.978-9.979 5.51 0 9.978 4.468 9.978 9.979 0 5.51-4.467 9.978-9.978 9.978-5.51 0-9.978-4.467-9.978-9.978z"/></g><g><path fill="#a0616a" d="M280.548 93.927l-12.306.665-1.996-10.976 9.978-1.663z"/></g><g><path fill="#5fa01b" d="M279.218 129.184l-13.483.38-6.807.95c-3.34-11.036-6.154-22.048.666-31.265l7.982-7.983 11.974-.332.159.09a9.643 9.643 0 0 1 4.418 11.218c-2.972 9.657-4.88 18.775-4.91 26.942z"/></g><g><path fill="#a0616a" d="M258.596 160.117l-.837 11.43a2.546 2.546 0 1 1-5.084-.246l.266-11.184 8.316-31.598.332-19.291 9.313-.333-.665 22.285z"/></g><g><path fill="#5fa01b" d="M271.9 110.558c-3.948-1.606-7.636-1.068-10.976 2.328l.458-16.288a4.243 4.243 0 0 1 8.434-.37z"/></g><g><path fill="#2f2e41" d="M290.693 120.703h-30.6c7.138-18.903 9.44-36.489 0-51.555.162-4.526 5.966-8.449 10.473-8.015 5.324.511 12.477 4.423 13.475 9.678z"/></g><g><path fill="#3f3d56" d="M193.17 60.302h-1.395V22.066c0-12.222-9.908-22.13-22.13-22.13H88.638c-12.222 0-22.13 9.908-22.13 22.13V231.83c0 12.222 9.908 22.13 22.13 22.13h81.007c12.222 0 22.13-9.908 22.13-22.13V87.52h1.396z"/></g><g><path fill="#fff" d="M170.538 5.694h-10.574a7.852 7.852 0 0 1-7.27 10.817h-46.408a7.851 7.851 0 0 1-7.27-10.817H89.14c-9.127 0-16.526 7.399-16.526 16.526v209.456c0 9.128 7.4 16.527 16.526 16.527h81.398c9.127 0 16.526-7.4 16.526-16.527V22.22c0-9.127-7.399-16.526-16.526-16.526z"/></g><g><path fill="#e6e6e6" d="M86.907 112.06V38.412h85.864v73.648z"/></g><g><path fill="#5fa01b" d="M106.105 121.135a6.283 6.283 0 1 1 12.565 0 6.283 6.283 0 0 1-12.565 0z"/></g><g><path fill="#fff" d="M115.529 120.611h-2.618v-2.618h-1.047v2.618h-2.618v1.047h2.618v2.618h1.047v-2.618h2.618z"/></g><g><path fill="#5fa01b" d="M139.263 121.135a6.283 6.283 0 1 1 12.566 0 6.283 6.283 0 0 1-12.566 0z"/></g><g><path fill="#fff" d="M142.405 120.611h6.283v1.047h-6.283z"/></g><g><path fill="#5fa01b" d="M133.042 47.597h-6.786a.9.9 0 0 0-.9.9v2.978a.9.9 0 0 0 .9.9h1.125v4.462h4.536v-4.462h1.125a.9.9 0 0 0 .9-.9v-2.978a.9.9 0 0 0-.9-.9z"/></g><g><path fill="#3f3d56" d="M139.838 74.855a34.885 34.885 0 0 1-6.069-20.683.736.736 0 0 0-.574-.734V52.15h-7.167v1.269h-.098a.735.735 0 0 0-.733.79c.565 7.87-1.341 14.927-5.719 21.172-.252.36-.38.79-.367 1.229l.784 24.239a2.098 2.098 0 0 0 2.08 2.025h16.21a2.099 2.099 0 0 0 2.081-2.061l.302-23.534a4.247 4.247 0 0 0-.73-2.425z"/></g><g opacity=".2"><path d="M131.627 48.568a1.94 1.94 0 0 1-3.882 0"/></g><g><path fill="#5fa01b" d="M137.272 82.906h-1.963a5.152 5.152 0 0 0-10.183 0h-1.963a1.448 1.448 0 0 0-1.431 1.669l2.132 13.858h12.242l2.59-13.811a1.448 1.448 0 0 0-1.424-1.716z"/></g><g><path fill="#e6e6e6" d="M86.907 215.725v-73.648h85.864v73.648z"/></g><g><path fill="#5fa01b" d="M106.105 224.8a6.283 6.283 0 1 1 12.565 0 6.283 6.283 0 0 1-12.565 0z"/></g><g><path fill="#fff" d="M115.529 224.276h-2.618v-2.618h-1.047v2.618h-2.618v1.047h2.618v2.618h1.047v-2.618h2.618z"/></g><g><path fill="#5fa01b" d="M139.263 224.8a6.283 6.283 0 1 1 12.566 0 6.283 6.283 0 0 1-12.566 0z"/></g><g><path fill="#fff" d="M142.405 224.276h6.283v1.047h-6.283z"/></g><g><path fill="#fff" d="M146.743 194.398h.047a8.042 8.042 0 0 0 7.53-5.044c5.3-13.4-1.16-28.571-14.494-34.037-13.333-5.466-28.583.804-34.214 14.068-5.632 13.265.448 28.591 13.641 34.388a7.973 7.973 0 0 0 8.855-1.642 26.236 26.236 0 0 1 18.635-7.733z"/></g><g><path fill="#f9a825" d="M124.527 177.736a8.693 8.693 0 1 1 17.386 0 8.693 8.693 0 0 1-17.386 0z"/></g></g></g></svg>